<svg width="198" height="151" viewBox="0 0 198 151" fill="none" xmlns="http://www.w3.org/2000/svg">
<path d="M128.327 18.9475C134.325 19.4599 131.523 29.9002 129.312 33.0346C128.173 34.6493 123.516 39.5727 123.557 40.7935C123.946 41.4838 124.744 42.0627 125.545 42.0977C133.884 42.4623 142.477 42.1442 150.709 40.6439C153.008 40.2251 155.896 39.4511 158.163 39.2957C159.149 39.2219 160.139 39.3838 161.051 39.7681C165.079 41.4828 163.43 46.1788 161.092 48.6342C154.394 55.6701 145.276 59.555 136.279 62.7243C137.314 63.3736 138.154 64.2861 139.063 65.09C148.437 73.3851 127.738 77.6958 122.379 80.1914L122.33 80.5928C122.851 81.0491 123.379 81.4957 123.916 81.9326C126.146 89.4162 119.133 89.8035 113.776 90.1246C106.918 90.5356 100.098 90.0336 93.339 88.851C93.1901 90.3266 92.9809 91.5603 92.724 93.0132C83.0745 92.3502 80.9671 90.7991 73.2629 86.1678C69.5142 86.3838 66.7449 87.6902 62.6753 87.8086C57.8804 87.948 57.2373 83.9329 57.2297 80.0762C57.2246 77.4382 62.9321 73.7939 64.4998 71.6446C67.129 68.0406 69.9876 64.0472 72.6899 60.451C75.795 55.7373 77.208 50.7221 81.8773 47.0057C90.5946 40.0675 97.5425 40.5755 107.932 41.5804L119.393 42.5937C119.229 41.5304 119.103 40.3359 118.966 39.2583C121.717 34.7822 127.82 31.6605 128.851 25.9068C129.028 24.9195 129.012 23.4255 128.141 22.7497C125.288 22.839 116.756 29.6124 112.753 30.7347C108.023 32.0609 103.549 33.7615 98.3535 34.4289C90.9524 35.3796 81.9993 33.7103 75.3148 37.6306C73.6527 38.8387 70.3402 50.2137 69.1143 52.7539C67.3456 56.419 64.8721 60.789 61.9839 63.72C63.3386 65.6203 63.6994 66.2211 64.512 68.3489C59.4471 76.7106 52.6604 74.9599 56.8848 87.2887C62.2294 91.6014 66.8231 88.9405 72.6924 88.3607C79.6166 92.3105 78.2509 92.5054 86.2677 94.1705C87.5648 94.5161 90.3927 95.9977 92.2914 96.6019C97.8234 98.3619 102.716 99.3848 108.444 100.209C118.674 101.681 129.112 100.933 139.116 103.515C141.686 104.179 145.604 106.78 147.855 108.231C157.274 114.306 173.235 126.658 178.649 136.483C175.28 138.972 175.426 139.342 172.954 142.101C170.579 144.75 156.424 147.398 154.112 146.06C147.853 142.439 141.648 135.394 136.216 130.452C129.355 124.208 123.045 114.313 114.054 111.054C108.472 109.031 104.532 110.736 99.2711 112.213C91.0281 113.777 81.6479 115.324 73.3183 114.036C68.1977 113.24 63.1853 111.858 58.3797 109.919C52.5144 107.602 50.5543 107.015 46.3607 102.193C41.3305 96.4096 40.0541 90.8228 38.9593 83.3581C38.4103 79.6154 37.1241 75.8887 37.0993 71.9704C36.5705 68.3379 36.4529 62.3233 34.9529 59.0835C33.0655 55.0062 12.929 45.8737 13.457 42.6782C15.8078 40.8535 24.9692 45.5335 28.1229 45.6311C33.7117 45.8045 39.5919 45.6367 45.0204 47.1626C50.4132 48.6788 54.1173 52.8085 57.3241 57.1623C58.4498 58.691 59.7 60.0884 60.6499 61.7945C61.9449 59.0731 64.0743 56.9895 65.4437 53.7911C67.6059 48.7414 68.4363 40.2282 71.5812 36.0051C72.6308 34.5874 74.0518 33.4871 75.6872 32.8255C80.9049 30.6602 94.2396 30.987 100.302 30.2671C103.383 29.9014 105.284 29.1451 108.209 28.1524C111.558 27.0159 116.268 24.871 119.273 23.168C123.606 20.7131 122.665 19.7725 128.327 18.9475ZM72.7032 83.6505C73.3231 83.4309 74.0315 83.0874 74.5997 83.381C79.4209 85.8728 82.6645 87.6889 88.0623 88.7012C88.1669 86.5999 88.1729 85.4985 89.3904 83.6742C97.9753 84.9919 107.181 86.339 115.854 85.2321C116.746 85.1182 118.447 84.906 119.183 84.4593C119.107 82.3045 108.166 78.5633 124.932 74.3734C126.958 73.8674 135.535 70.7618 136.129 68.874C135.335 66.3912 128.237 63.8903 129.283 60.9292C131.377 58.7549 138.964 56.9173 142.04 55.81C145.478 54.5721 158.441 47.2733 159.005 43.6683C158.638 43.0151 158.417 43.1101 157.638 42.9047C156.528 44.1159 155.659 44.4223 154.076 44.7376C144.313 46.6817 134.506 46.5411 124.624 46.5408C118.551 46.5406 113.254 46.5068 107.199 45.6612C101.651 44.8863 95.2667 43.3602 90.0571 45.8573C87.2717 47.1885 84.3694 48.337 82.2961 50.8032C78.0663 55.9004 75.2717 62.1483 71.0946 67.2992C69.3501 69.3566 67.3745 71.07 65.3904 72.9089C64.2417 73.9618 62.0675 75.3248 61.183 76.5349C59.9697 78.1948 57.9757 83.4221 59.7531 84.9695C63.568 88.2906 69.0566 84.1841 72.7032 83.6505ZM134.645 117.997C130.359 116.195 126.727 112.632 123.143 109.664C122.687 109.286 122.471 109.329 121.986 109.439C121.658 110.554 122.876 110.94 123.555 111.77C125.094 113.648 127.313 114.948 128.976 116.662C134.798 122.666 140.508 128.762 146.632 134.466C148.422 136.126 150.239 138.033 152.135 139.511C153.458 140.51 156.647 143.088 158.448 141.777C158.761 140.42 156.631 139.305 155.846 138.093C151.144 130.826 144.997 125.023 139.207 118.667C137.268 116.536 134.714 115.285 133.612 112.527C132.292 111.662 129.3 108.964 128.24 108.891C128.64 110.386 133.061 112.899 132.563 113.913C130.214 113.618 125.78 108.184 123.404 107.473C123.447 107.721 123.502 108.032 123.567 108.405C125.812 111.121 132.713 115.782 134.645 117.997ZM163.198 142.267C164.91 143.037 170.044 141.497 169.572 138.529C168.527 137.306 167.252 136.392 166.128 135.265C159.556 128.673 152.638 122.243 145.415 116.37C143.35 114.69 139.306 110.747 137.018 109.903C136.995 110.717 136.87 110.608 137.328 111.067C138.719 112.461 143.21 114.876 143.88 116.605L143.816 116.924C142.552 116.6 140.056 115.2 139.298 115.575C139.54 116.458 143.719 120.139 144.788 121.206C147.995 124.359 151.007 127.705 153.807 131.223C156.398 134.436 160.037 139.961 163.198 142.267ZM41.1348 64.3378C40.5982 66.0203 39.9968 69.2258 41.2529 70.6454C41.7473 69.1242 42.2175 66.3636 41.6419 64.8487L41.1348 64.3378ZM49.5355 70.4271C49.6454 68.5789 49.4821 65.54 47.769 64.3973C47.5425 65.5254 48.3506 68.4159 48.6563 69.699C49.0139 70.1368 49.0345 70.2065 49.5355 70.4271ZM41.599 86.9305C41.8659 85.0465 42.438 82.5912 41.6747 80.9051C41.2873 80.5488 41.2233 80.5011 40.7443 80.2844C40.915 82.111 40.8456 85.49 41.599 86.9305ZM54.4125 71.5387C54.6768 70.245 53.3366 66.6768 52.0563 66.1188C51.8558 67.2846 53.2141 71.0118 54.4125 71.5387ZM43.5428 48.8794L42.9528 49.0915L43.0152 49.4308C44.3438 50.2457 46.0134 50.9054 47.1195 51.6793L47.6024 51.4523C47.6169 50.1973 44.6358 49.1349 43.5428 48.8794ZM128.926 105.867C129.215 104.263 126.631 103.743 125.28 103.234C124.784 104.826 126.727 105.229 128.014 105.626C128.314 105.719 128.619 105.799 128.926 105.867ZM34.9286 48.2267C35.9879 48.1319 37.2231 48.089 38.2 47.714L38.4054 47.3736C38.1466 47.1011 38.0521 46.9468 37.6886 46.8473L37.4754 46.9165C36.2468 47.3058 34.8833 47.1933 34.2248 47.5955L34.2623 47.8722L34.9286 48.2267ZM91.3197 100.826C92.5926 101.678 93.4525 101.992 95.0123 101.864C94.2224 100.908 92.5178 100.838 91.3197 100.826ZM57.2634 65.0279C57.8093 66.3568 59.0859 68.1688 60.6547 68.2846C60.2048 67.4335 59.0178 65.7748 58.2515 65.2069L57.2634 65.0279ZM90.166 105.695L89.7849 106.099C90.3391 106.624 91.9541 106.784 92.8078 106.929L93.0021 106.658C92.3849 105.974 91.0552 105.76 90.166 105.695ZM109.081 104.911C109.797 104.898 110.558 104.982 111.094 104.54C110.776 104.044 110.038 104.041 109.458 103.979C108.658 104.069 107.827 104.045 107.279 104.585L107.313 104.861C107.908 105.144 108.432 105.003 109.081 104.911ZM77.4893 113.028C78.4302 113.257 79.7236 113.682 80.5078 112.869C79.8129 112.347 75.4493 112.144 73.8367 111.84C70.7615 111.262 66.6096 110.565 63.6272 109.285C63.4856 109.224 63.4034 109.21 63.2784 109.195L63.2622 109.833C62.2238 110.247 60.8727 109.292 60.6378 109.654C64.0867 111.347 73.356 112.364 77.4893 113.028ZM49.787 88.4633C49.8637 90.2881 52.0476 93.5307 53.631 94.1486C53.6492 93.0157 50.5896 88.759 49.787 88.4633ZM79.7652 97.2218C78.8497 97.1515 78.8301 97.0095 78.107 97.3516C78.6337 98.0021 79.3726 97.897 80.1592 97.8952C80.8118 97.952 81.3435 98.0927 81.8613 97.7563C81.3237 97.2431 80.5498 97.2904 79.7652 97.2218ZM58.1743 103.231C59.0205 104.258 60.9323 105.475 62.2945 105.515C61.606 104.15 59.7092 103.161 58.1743 103.231ZM43.3173 71.6328C43.3309 72.8122 43.1775 74.4558 43.4941 75.4549C44.0682 75.8154 43.8038 75.738 44.5059 75.7235C44.4011 74.28 44.5157 72.5534 43.3173 71.6328ZM50.0942 82.0715C50.5422 84.1168 51.7218 87.0572 53.9424 87.5523C53.2598 86.001 51.7472 82.6057 50.0942 82.0715ZM43.5483 84.6145C43.3553 85.919 44.2003 89.0479 45.0101 90.1675C45.3504 90.6384 45.5798 90.6142 46.1449 90.8227C45.6692 89.2411 45.0062 85.2629 43.5483 84.6145ZM115.582 103.007L115.281 103.587C115.799 104.762 120.017 104.92 121.242 105.048L121.731 104.763L121.692 104.394C120.713 103.61 116.984 103.18 115.582 103.007ZM42.8838 59.0516C43.8869 59.0306 45.0751 59.0375 46.0603 58.9703C46.7047 58.2889 47.2916 57.6249 48.0493 57.066C47.2667 56.1118 46.0435 54.2735 45.1186 53.749C44.3441 55.9873 43.8723 56.9525 42.8838 59.0516ZM47.5727 95.8967C47.5392 98.6084 49.2691 101.364 51.9483 102.116C51.5336 101.238 48.2598 96.1851 47.5727 95.8967ZM41.3271 51.7813C39.6329 53.1891 39.4372 55.5254 41.1471 57.0165C41.7029 55.9346 42.8703 53.2688 42.2507 52.1652L41.3271 51.7813ZM62.6538 94.7317C62.6953 95.3422 62.6573 95.8577 63.2522 96.2911C64.5496 97.2365 68.4663 99.2389 69.8925 99.4241C69.352 97.9736 64.2109 95.4829 62.6538 94.7317ZM56.8695 98.1564C57.1288 99.5241 57.2569 100.111 58.3485 101.042C59.799 102.278 62.3301 103.933 64.1894 104.365C64.1544 104.178 64.1101 103.943 64.0564 103.658C61.9258 101.86 59.5597 100.322 57.4975 98.4478C57.3766 98.3376 56.9877 98.1936 56.8695 98.1564ZM83.8854 103.881C82.2989 103.751 78.2152 103.113 77.0765 103.836C77.1518 104.444 77.0425 104.217 77.5338 104.674L78.6373 104.845C79.9466 104.963 84.7753 105.639 85.5081 104.838C85.3266 104.212 85.4204 104.426 84.7837 103.961L83.8854 103.881ZM96.5982 103.068C94.6031 103.802 90.2038 102.33 88.6919 103.274C88.8419 104.033 89.4238 103.986 90.1175 104.039C91.8864 104.388 96.6009 105.082 98.0017 103.68L97.9151 103.349C97.3231 103.092 97.2402 103.055 96.5982 103.068ZM88.2861 108.516C86.2856 108.593 80.9497 107.996 79.7188 109.085L79.672 109.54L80.1518 109.894C82.0353 109.96 87.2211 110.166 88.7252 109.045L88.6412 108.688L88.2861 108.516ZM136.571 106.948C137.471 107.766 138.242 107.97 139.188 108.617C148.449 114.946 157.176 122.263 165.151 130.143C167.14 132.108 169.455 134.345 171.809 135.867C172.055 136.022 172.922 136.021 173.259 136.018C173.268 134.026 171.05 132.319 169.685 130.942C166.706 127.936 163.614 124.79 160.382 122.058C156.453 118.737 152.201 115.844 148.021 112.866C144.694 110.496 141.184 106.872 136.773 106.941C136.706 106.942 136.638 106.946 136.571 106.948Z" fill="black"/>
<path d="M98.8354 66.8513C97.229 64.5953 93.9014 61.9836 93.3773 59.6849C93.5292 58.9366 93.3638 59.1962 94.0221 58.7286C96.8808 58.162 106.587 61.1931 108.214 60.9892L108.365 60.6755C107.084 58.7487 97.7267 55.1407 100.679 52.3967C101.779 51.3746 111.826 53.5792 112.332 53.3706C111.76 51.5376 108.378 51.1876 109.231 49.0335C111.406 47.0426 120.454 49.6295 123.678 49.0794C124.73 48.8999 125.545 47.8603 126.156 48.8548C128.405 53.4726 120.781 52.3556 119 52.3524C119.825 53.2427 120.908 54.3494 121.674 55.2547C121.206 56.4938 121.152 57.119 119.992 57.6861C117.332 58.9853 111.503 55.5223 109.345 56.6343C109.831 58.0199 114.715 59.8352 113.879 62.8982C110.94 66.2157 102.902 61.7159 99.3375 62.3822C98.8955 63.8919 102.585 66.0298 102.269 68.0762C101.424 69.1182 100.381 69.2301 99.0643 69.1391C94.8609 68.8491 90.591 67.9245 86.4513 67.2098C87.5991 68.6041 88.3494 69.5809 89.354 71.0777C88.8154 71.2164 88.7175 71.2641 88.2332 71.5394L88.0518 72.2187C87.5432 71.7184 87.817 71.5721 87.7333 70.5216C87.0998 69.9067 86.9929 70.0588 85.9692 69.8496C84.8537 68.452 82.9574 66.2587 84.4824 64.6191C86.01 64.4385 96.5334 66.4774 98.8354 66.8513Z" fill="black"/>
<path d="M124.666 61.1429C124.593 59.9961 124.287 57.5833 124.454 56.6913C125.249 55.8469 138.565 52.3382 140.229 52.3457L140.179 52.6152C137.521 54.4096 131.697 55.6975 128.678 56.6104C126.823 57.1714 124.729 56.1826 126.057 59.7594C127.4 63.3783 125.113 62.6864 122.247 63.7413C126.416 71.8881 115.652 69.0536 110.512 70.5116C111.015 71.7445 111.509 73.005 112.067 74.2122L110.021 75.423C106.267 75.0846 101.235 75.0904 97.8477 74.5234C97.7193 74.4663 97.1785 74.0939 97.0274 73.9934C99.6235 73.0221 109.66 74.3536 110.245 73.3008C109.907 71.4893 107.949 70.3362 108.75 69.0555C112.075 68.1175 120.605 69.1358 121.911 67.1232C122.384 65.3415 120.559 63.473 119.445 62.3064L119.326 62.1824C121.664 62.0786 122.509 62.1394 124.666 61.1429Z" fill="black"/>
<path d="M85.9693 69.8495C86.9929 70.0588 87.0998 69.9067 87.7333 70.5216C87.817 71.572 87.5432 71.7184 88.0518 72.2187L88.2332 71.5394C88.7175 71.264 88.8154 71.2164 89.354 71.0777C92.2703 75.833 87.1885 74.6618 84.3793 74.2242C82.3583 73.9095 80.2927 73.4891 78.2479 73.4032C78.0573 73.2056 77.87 73.0049 77.6863 72.8008C77.2961 72.9584 76.9321 73.1192 76.5482 73.2913C76.3137 72.6221 75.9702 71.9348 76.1933 71.284C77.0241 70.8218 85.3258 72.7457 87.3218 72.9909C86.7008 71.9007 86.4003 71.0128 85.9693 69.8495Z" fill="black" fill-opacity="0.988235"/>
<path d="M80.3867 78.8361C80.7727 79.7954 80.8666 80.0314 80.0716 80.6638C78.3926 81.02 72.8779 79.769 72.2264 78.1182C73.1937 77.5262 76.8841 78.3087 78.1694 78.5268C78.7783 79.0361 79.6474 78.9816 80.3867 78.8361Z" fill="black"/>
<path d="M76.5481 73.2913C76.9321 73.1192 77.2961 72.9584 77.6862 72.8008C77.8699 73.0049 78.0572 73.2056 78.2479 73.4032C78.3067 74.3847 79.8845 76.0373 80.3867 78.8361C79.6474 78.9816 78.7783 79.0361 78.1694 78.5268C78.352 78.4265 78.3163 78.4089 78.4494 78.2033C77.6976 77.2195 76.361 74.5105 76.5481 73.2913Z" fill="black" fill-opacity="0.980392"/>
<path d="M93.1643 80.0263C94.6943 79.9795 97.6223 80.6329 98.6506 79.9929C99.0446 78.25 96.3433 75.7577 96.5846 74.174L97.0273 73.9935C97.1785 74.094 97.7193 74.4663 97.8477 74.5234C97.8153 74.8872 100.124 79.8892 100.455 80.8003C97.9978 81.0764 95.5094 80.8123 93.1643 80.0263Z" fill="black" fill-opacity="0.972549"/>
<path d="M63.2784 109.195C63.4034 109.21 63.4856 109.224 63.6272 109.285C66.6096 110.565 70.7615 111.262 73.8367 111.84C75.4493 112.144 79.8129 112.347 80.5078 112.869C79.7236 113.682 78.4302 113.257 77.4893 113.028C73.356 112.364 64.0867 111.347 60.6377 109.654C60.8727 109.292 62.2238 110.247 63.2622 109.833L63.2784 109.195Z" fill="black" fill-opacity="0.898039"/>
<path d="M88.2861 108.516L88.6412 108.688L88.7252 109.045C87.2211 110.166 82.0353 109.96 80.1518 109.894L79.672 109.54L79.7188 109.085C80.9497 107.996 86.2856 108.593 88.2861 108.516Z" fill="black" fill-opacity="0.0117647"/>
<path d="M62.6538 94.7317C64.2109 95.4829 69.352 97.9736 69.8925 99.4241C68.4663 99.2389 64.5495 97.2365 63.2521 96.2911C62.6573 95.8577 62.6953 95.3422 62.6538 94.7317Z" fill="black" fill-opacity="0.01"/>
<path d="M47.769 64.3973C49.4821 65.54 49.6454 68.5789 49.5355 70.4271C49.0345 70.2065 49.0139 70.1368 48.6563 69.699C48.3506 68.4159 47.5425 65.5254 47.769 64.3973Z" fill="black" fill-opacity="0.01"/>
<path d="M49.7871 88.4633C50.5896 88.759 53.6492 93.0158 53.631 94.1486C52.0476 93.5307 49.8638 90.2881 49.7871 88.4633Z" fill="black" fill-opacity="0.01"/>
<path d="M40.7443 80.2844C41.2233 80.5011 41.2873 80.5488 41.6747 80.9051C42.438 82.5912 41.8659 85.0465 41.599 86.9305C40.8456 85.49 40.915 82.111 40.7443 80.2844Z" fill="black" fill-opacity="0.0235294"/>
<path d="M57.2634 65.0279L58.2515 65.2069C59.0178 65.7748 60.2048 67.4335 60.6547 68.2846C59.0859 68.1688 57.8093 66.3568 57.2634 65.0279Z" fill="black" fill-opacity="0.0117647"/>
<path d="M37.6886 46.8473C38.0521 46.9468 38.1466 47.1011 38.4054 47.3735L38.2 47.7139C37.2231 48.089 35.9879 48.1318 34.9286 48.2266L34.2623 47.8722L34.2248 47.5955C34.8833 47.1933 36.2468 47.3058 37.4754 46.9165L37.6886 46.8473Z" fill="black" fill-opacity="0.01"/>
<path d="M43.3172 71.6328C44.5157 72.5534 44.401 74.28 44.5059 75.7235C43.8037 75.7379 44.0682 75.8154 43.494 75.4549C43.1774 74.4558 43.3308 72.8122 43.3172 71.6328Z" fill="black" fill-opacity="0.0156863"/>
<path d="M58.1743 103.231C59.7092 103.161 61.606 104.15 62.2945 105.515C60.9323 105.475 59.0205 104.258 58.1743 103.231Z" fill="black" fill-opacity="0.894118"/>
<path d="M109.458 103.979C110.038 104.041 110.776 104.044 111.095 104.54C110.558 104.982 109.797 104.898 109.081 104.911C108.432 105.003 107.908 105.144 107.313 104.861L107.279 104.585C107.827 104.045 108.658 104.069 109.458 103.979Z" fill="black" fill-opacity="0.0117647"/>
<path d="M79.7652 97.2218C80.5498 97.2904 81.3238 97.2431 81.8613 97.7563C81.3435 98.0927 80.8118 97.952 80.1593 97.8952C79.3726 97.897 78.6338 98.0021 78.1071 97.3516C78.8302 97.0095 78.8498 97.1515 79.7652 97.2218Z" fill="black" fill-opacity="0.262745"/>
<path d="M90.166 105.695C91.0552 105.76 92.3849 105.974 93.0021 106.658L92.8078 106.929C91.9541 106.784 90.3391 106.624 89.785 106.099L90.166 105.695Z" fill="black" fill-opacity="0.827451"/>
<path d="M91.3196 100.826C92.5178 100.838 94.2224 100.908 95.0123 101.864C93.4525 101.992 92.5926 101.678 91.3196 100.826Z" fill="black" fill-opacity="0.815686"/>
</svg>
