<svg width="196" height="369" viewBox="0 0 196 369" fill="none" xmlns="http://www.w3.org/2000/svg">
<path d="M104.175 0.0524441C112.865 -0.381306 119.776 1.79194 124.081 9.70619C127.456 15.9104 128.558 22.7597 129.862 29.5982C132.777 44.8792 134.04 60.3799 133.68 75.9299C133.501 84.7687 132.606 93.7324 132.606 102.5C132.606 107.795 133.129 114.223 133.403 119.606C134.236 135.998 134.125 148.595 129.664 164.651C132.535 163.751 135.374 162.749 138.175 161.644C139.719 161.024 141.225 160.318 142.469 159.191C155.523 147.355 152.497 109.45 154.478 92.5637C155.01 88.0367 155.973 83.4847 157.785 79.2862C160.242 73.5932 164.346 69.2187 170.183 66.9227C173.545 65.6002 177.008 65.3605 180.358 66.8615C185.64 69.2285 188.333 74.8737 190.23 80.0297C192.425 85.9954 193.468 92.2662 194.338 98.5389C197.803 123.472 195.008 150.297 184.345 173.321C182.55 177.201 180.718 182.601 177.735 185.711C172.323 191.359 139.631 205.289 130.511 208.636C131.036 240.051 129.359 271.211 127.988 302.571C127.342 317.836 126.844 333.109 126.492 348.384C126.318 354.971 125.978 361.389 125.933 368.014C123.369 367.764 118.285 367.921 115.534 367.924L95.5453 367.941C95.932 365.276 95.8645 362.259 95.951 359.544C96.0133 357.596 96.501 353.961 94.869 352.721L94.4295 352.839C92.3015 355.596 94.259 364.406 92.944 368.104L92.39 368.096C90.9545 365.829 92.7603 346.899 92.7735 342.416C92.804 332.059 93.1835 321.906 95.6355 311.816C95.067 311.231 93.8478 310.034 93.7698 309.284C93.4583 306.289 93.941 303.101 93.9298 300.044C93.92 297.406 93.2658 293.936 93.3535 291.474C93.5295 287.759 94.4758 284.046 94.8288 280.346C98.1353 245.696 95.6195 210.719 96.3693 175.974C96.581 164.496 97.8383 153.166 98.1845 141.682C98.822 120.537 97.7473 99.4032 96.9003 78.2804C96.7635 74.8739 96.6678 71.3059 96.2623 67.9394C95.6003 70.7799 95.489 76.0957 95.3523 79.2162L94.6045 98.8129C93.3493 128.788 92.4905 158.779 92.0288 188.776C91.7493 203.939 91.6448 219.106 91.7155 234.271C91.7583 242.549 91.9635 251.016 91.8365 259.289C91.8098 261.026 90.3723 265.441 89.899 267.584C88.8898 272.306 88.1685 277.084 87.74 281.891C86.0553 300.171 86.9195 318.471 86.4313 336.811C86.13 348.134 83.9965 356.661 84.179 368.031C82.3838 367.886 81.2245 367.891 79.4185 367.944C79.6393 364.926 79.4843 361.804 79.8148 358.724C80.2008 355.129 80.886 351.566 81.2605 347.994C82.0348 340.194 81.9433 332.331 80.9878 324.551C80.46 320.261 79.2048 317.496 78.6095 313.846C79.4008 312.634 80.3798 313.511 81.0398 311.596C80.83 309.716 79.4515 308.611 78.1495 307.231C85.4958 301.019 80.6648 292.906 77.2793 286.151C76.2698 293.606 76.9978 301.946 77.0125 309.271C77.0225 314.226 78.7915 335.556 77.094 338.684L76.7948 338.674C76.1035 336.469 77.7908 328.969 75.988 327.921C74.393 330.094 77.7278 344.729 73.0688 352.649C77.65 355.874 75.8008 362.721 76.1025 367.979C73.6748 367.816 72.7855 367.711 70.3448 368.071C70.2855 358.486 70.9038 349.586 70.9923 340.111C71.1665 321.469 70.521 303.181 72.2985 284.571C66.6333 282.799 59.788 280.229 54.217 278.189C37.1243 271.936 16.7805 264.271 7.78177 247.274C5.53077 243.021 3.71627 239.119 2.90802 234.311C1.00902 223.016 1.57578 211.594 1.09628 200.206C0.781778 192.746 0.271774 185.466 0.0915244 177.986C-0.0977256 170.136 0.108773 162.441 0.0632728 154.598C-0.0157272 141.048 -0.493478 127.619 3.15902 114.391C4.47602 109.621 6.86552 105.214 11.4113 102.782C15.6443 100.518 25.5213 98.9652 30.2193 100.238C34.4363 101.546 35.7385 105.96 37.1145 109.47C40.2508 117.469 40.927 124.696 41.3753 133.195C42.4375 153.33 39.4648 173.494 40.1035 193.631C40.3683 201.976 41.7033 212.014 45.5793 219.539C47.0373 222.256 49.36 226.019 51.65 228.001C58.0785 233.566 68.8283 236.244 76.8765 238.774C78.0933 223.266 76.475 207.284 79.343 191.926C79.7375 189.814 80.8185 186.776 80.7735 184.684C80.6973 181.146 80.3598 177.554 80.1853 174.009C79.8673 167.001 79.649 159.989 79.5305 152.975C79.425 142.795 79.7043 133.308 79.9228 123.194C80.3038 103.324 81.007 83.4619 82.032 63.6152L82.9805 41.1967C83.496 29.3347 83.6405 13.8142 92.4913 4.72994C95.7495 1.38569 99.7683 0.610694 104.175 0.0524441ZM99.431 5.22594C99.029 8.30294 98.856 12.2894 98.719 15.4462C101.33 10.3564 102.281 7.60944 107.217 4.63919C102.771 17.6947 103.459 47.4099 103.515 61.5182C103.579 77.7152 104.101 91.9292 102.264 108.296C106.834 113.142 107.213 116.713 107.358 123.302C107.45 127.42 107.311 131.561 107.335 135.681C107.297 137.624 108.278 143.747 107.893 144.977L107.549 145.027C106.478 143.911 105.672 142.358 104.63 141.652L104.122 141.718C103.067 143.251 102.578 146.959 102.127 148.888C99.434 160.402 98.5258 168.904 99.0245 180.694C103.405 173.981 107.673 171.831 112.248 166.209C106.117 136.865 109.971 108.374 110.42 78.8599C110.516 74.9299 110.499 70.9982 110.37 67.0692C110.05 59.2934 109.105 58.4227 110.605 50.4022C112.666 39.9154 110.965 31.9117 109.511 21.5869C109.086 18.5684 108.883 8.08444 109.439 5.20944C122.052 51.8887 110.014 101.531 115.728 149.043C116.242 153.316 116.559 158.639 117.869 162.736C118.27 157.284 118.003 149.959 117.963 144.347C117.962 135.999 118.01 127.651 118.107 119.304C118.629 81.6837 119.91 44.2472 115.292 6.78194C112.586 5.75969 107.786 3.84995 104.945 4.06145C103.066 4.2462 101.188 4.47619 99.431 5.22594ZM99.1295 354.149C100.088 354.244 100.916 354.201 101.636 354.776C101.499 355.736 99.8958 356.486 99.1113 357.131C101.157 357.306 103.057 357.394 105.105 357.476L105.985 357.119L106.128 356.614C105.636 355.756 104.966 355.246 104.287 354.546C99.5045 349.614 105.089 341.746 106.632 336.074L103.004 336.006C104.973 327.916 106.511 321.979 107.197 313.519C109.273 287.891 107.752 262.261 107.147 236.666C107.044 231.369 106.886 226.074 106.674 220.779C106.625 219.434 106.631 215.866 106.349 214.811C105.229 214.364 103.606 215.659 103.37 214.626C102.266 209.789 105.58 193.869 99.0045 192.234C98.8515 197.171 98.8168 200.246 99.4288 205.094C100.35 212.384 102.866 221.879 102.479 229.126C102.378 230.979 102.093 232.819 101.628 234.616C100.947 237.176 98.7028 240.799 99.4533 242.634C100.535 243.556 102.696 244.384 102.612 245.466C102.31 249.354 100.713 253.749 100.109 257.721C99.304 263.324 98.8145 268.966 98.642 274.624C98.1433 291.841 98.959 308.991 99.405 326.196C99.5565 331.989 99.634 337.784 99.6375 343.579C99.6243 346.681 99.6498 351.209 99.1295 354.149ZM125.81 200.439C133.361 199.649 141.403 198.984 148.613 196.476C150.383 195.861 151.516 194.166 153.194 193.629C161.656 190.904 166.42 190.091 172.515 182.591C187.693 163.916 188.433 128.693 186.02 105.714C185.625 101.928 181.423 77.2012 179.463 75.8745C179.41 75.839 179.35 75.8179 179.293 75.7894L179.238 76.0647C178.698 78.8782 179.508 90.0437 179.59 93.8099C180.178 120.758 188.335 167.706 162.955 185.864C159.794 188.124 155.403 190.044 151.833 191.326C149.661 192.121 147.464 192.844 145.244 193.494C142.136 194.384 122.102 199.386 121.41 200.459C122.579 201.016 124.472 200.504 125.81 200.439ZM24.5633 104.447C23.1803 106.219 21.304 108.542 20.5768 110.653C15.7368 124.706 19.2885 140.228 19.3875 154.834C19.4688 166.834 15.7943 182.996 23.316 193.101C23.2628 183.451 23.3243 173.799 23.5008 164.151L24.12 139.746C24.3203 128.661 24.3835 116.982 24.901 105.922C27.2208 108.673 27.9273 109.447 29.01 113.026C32.4925 124.539 24.3125 146.132 31.341 155.73L31.8203 155.88C32.0753 155.442 32.2395 154.689 32.193 154.19C30.8015 139.185 36.179 117.508 28.4388 104.228C26.965 103.917 25.6658 103.59 24.1488 103.575C19.8538 103.888 16.6198 104.539 13.632 107.947C12.0933 109.702 9.75902 114.16 9.44677 116.372L9.65853 116.815C10.757 116.77 11.5575 116.03 12.2418 115.219C16.5955 110.055 17.613 106.902 24.5633 104.447ZM87.4775 154.664C87.4885 156.954 87.4395 159.35 87.6955 161.616L87.8095 161.621C87.9995 159.403 88.1653 157.184 88.307 154.963C88.5303 149.781 89.2283 144.285 89.8613 139.127C89.9413 136.918 91.4153 132.364 91.1688 130.285C87.682 100.91 90.5375 71.3482 92.301 41.9502C92.5025 38.5909 94.0305 13.8934 92.9933 11.9529C92.1888 12.5484 90.9195 18.8209 90.6175 20.1384C86.6313 37.5262 85.7403 55.5704 85.6653 73.3609C85.551 100.501 87.5405 127.514 87.4775 154.664ZM159.677 89.8909C162.267 90.7049 163.036 90.9729 164.346 93.4839L165.045 94.8544C165.073 91.8422 164.701 76.2539 165.868 74.8662C168.913 74.4799 167.995 73.3779 170.753 71.1372C169.768 74.6402 169.678 81.2959 169.608 85.0682C169.488 94.9774 169.658 104.888 170.123 114.787C170.343 120.16 170.878 128.242 170.655 133.43C170.798 138.969 170.743 144.51 170.495 150.045C170.29 153.941 169.818 157.939 169.7 161.811C171.075 158.991 172.323 153.913 172.998 150.821C176.51 134.728 176.628 118.492 175.025 102.148C174.215 93.8867 173.208 83.9077 174.613 75.6699C174.968 73.5884 176.773 71.5844 178.123 69.9667C176.333 69.5479 175.365 69.3404 173.52 69.3059C161.393 70.5862 159.108 79.2287 159.677 89.8909ZM120.178 118.721C124.809 129.139 122.972 142.923 123.183 154.216C123.217 156.031 122.836 161.611 123.119 163.064L123.433 163.171L123.976 162.619C128.615 153.015 124.204 139.643 125.682 129.27C125.747 126.753 128.457 122.641 128.246 120.381C127.496 112.323 126.815 104.448 126.568 96.3499C125.847 72.7639 128.244 48.8402 123.763 25.5174C123.72 25.2929 123.413 24.8279 123.284 24.6427C122.976 29.0847 123.327 33.3702 123.456 37.8017C124.087 59.4419 124.696 81.1597 122.401 102.73C121.833 108.071 120.982 113.411 120.178 118.721ZM161.512 112.993C165.32 116.267 165.973 124.756 163.062 128.844C162.769 129.255 161.888 130.01 161.48 130.407C163.134 134.864 163.412 141.589 162.663 146.265C160.013 162.806 146.579 173.819 131.623 179.236C122.551 182.424 112.923 183.719 103.332 183.041C102.651 184.696 102.018 185.999 102.746 187.789C103.414 189.431 104.887 190.691 106.681 189.919L107.23 189.269C106.985 187.796 104.223 187.806 103.333 186.446C103.586 185.761 103.844 185.721 104.596 185.534C107.535 186.966 118.642 190.976 121.151 187.859C120.622 186.571 114.313 188.634 112.304 186.664C112.114 184.809 115.046 184.419 116.43 184.221C118.623 183.911 121.771 185.431 123.707 185.269C123.805 185.134 124.763 183.679 124.622 183.794C128.043 180.979 138.029 180.591 140.614 179.066C146.532 175.579 155.29 167.146 161.798 164.881C161.483 164.184 160.984 163.161 160.75 162.464C162.643 156.63 164.792 150.765 165.425 144.599C166.643 132.734 166.248 120.6 165.6 108.701C165.503 106.913 165.823 101.447 164.899 100.413C164.002 104.316 162.162 109.751 161.512 112.993ZM81.5048 262.604C82.9883 261.041 80.621 258.724 79.3798 257.639C72.2823 251.444 61.6555 251.944 53.3098 248.316C49.314 246.591 48.1333 243.709 44.7495 240.606C42.214 238.281 36.2715 235.719 34.7708 234.146C30.3405 229.501 23.6213 217.519 23.1993 210.954C22.8958 206.231 25.289 200.864 22.9815 197.144L22.4463 196.809C21.8903 197.981 21.829 200.161 21.6448 201.561C20.7918 208.046 19.9525 214.656 22.1673 220.984C23.183 224.224 26.1163 226.161 28.0163 228.781C29.772 231.204 30.8153 234.531 32.5708 236.941C37.446 243.636 45.4443 248.209 52.785 251.759C57.0475 253.819 61.481 255.091 65.9443 256.594C71.1325 258.704 74.138 263.696 81.5048 262.604ZM112.967 204.946C113.176 209.246 112.601 218.919 117.538 220.571C118.091 220.276 117.909 220.491 118.118 219.919C118.146 215.906 117.949 209.881 118.283 206.084C116.467 205.779 114.737 205.474 112.967 204.946ZM113.012 221.841C113.033 224.389 113.52 227.744 113.901 230.344C114.888 237.066 114.13 245.084 115.14 251.614C115.599 251.129 115.6 249.796 115.673 249.046C116.213 244.014 117.162 239.236 117.696 234.529C115.356 230.724 116.649 223.569 113.012 221.841ZM58.4633 244.174C60.645 248.341 75.996 252.634 80.7025 252.346C79.004 247.786 67.1535 246.614 62.8615 245.479C61.7878 245.194 59.3488 244.331 58.4633 244.174ZM68.9548 275.349L69.4308 275.061L69.3653 274.641C67.4573 273.874 54.7183 272.016 52.4523 272.011C52.7528 272.899 53.0658 273.086 54.094 273.524C59.4915 275.821 63.26 276.904 68.9548 275.349ZM55.1183 242.704C54.3658 238.706 45.2313 233.106 41.178 232.499C41.0965 234.389 49.6323 238.399 51.254 240.181C51.6615 240.629 54.638 242.534 55.1183 242.704ZM8.01953 224.371C6.82253 228.079 9.48803 237.696 12.9465 240.131C13.3848 235.944 11.8383 226.769 8.01953 224.371ZM12.3238 140.629C14.1238 136.175 13.0538 124.302 13.9163 118.207C10.8583 123.344 12.1228 134.164 12.25 140.389C12.2745 140.469 12.2993 140.549 12.3238 140.629ZM86.761 180.521C86.2883 188.966 85.1133 198.059 84.1275 206.474C82.668 218.946 81.3115 231.429 80.0583 243.924C77.7673 242.289 75.5623 241.089 72.8655 242.514L72.731 242.916C72.9223 243.064 85.0063 246.156 85.8445 246.349C86.184 235.426 86.7635 224.539 87.0235 213.584C87.2743 203.016 86.9368 191.576 87.4913 181.081C87.7153 179.054 87.5358 177.369 87.288 175.366C86.7998 177.461 86.6548 178.384 86.761 180.521ZM39.6153 267.419C42.3528 268.409 44.6658 269.649 47.4205 270.559C48.2323 269.989 48.076 270.274 48.3143 269.469C47.858 268.159 42.7958 264.601 41.4515 264.021C40.852 265.029 40.0023 266.349 39.6153 267.419ZM39.9598 263.376C38.537 260.776 24.815 253.464 21.6215 250.781C21.1718 250.404 18.0543 248.086 17.7013 247.974C17.9428 249.794 22.9698 255.011 24.4348 256.591C28.1485 260.601 34.288 264.131 39.9598 263.376ZM126.426 186.199C127.409 185.949 127.864 185.929 128.602 185.236L128.597 184.714C128.249 184.434 128.143 184.309 127.739 184.109C126.835 184.549 126.231 184.744 125.596 185.516L125.664 185.921L126.426 186.199ZM14.9843 228.469C16.6983 229.089 18.634 230.136 20.2833 228.971C20.6778 222.916 15.58 216.224 14.9455 210.899C14.6003 208.004 15.9818 200.801 16.0705 197.216C16.1695 193.009 16.1485 188.799 16.0078 184.591C15.978 183.876 15.851 181.311 15.7465 180.756C15.0533 177.066 14.2108 154.658 12.9765 153.093C12.382 156.721 12.2428 165.019 12.1625 168.936C11.8268 184.469 12.33 200.009 13.6698 215.486C14.053 219.719 14.2993 224.311 14.9843 228.469ZM102.498 118.537C102.061 120.392 101.625 132.7 102.443 135.244C102.519 135.479 102.847 135.691 103.069 135.821C103.583 134.324 103.643 120.658 103.138 119.009C102.867 118.782 102.808 118.698 102.498 118.537ZM25.374 243.751C23.6053 240.136 22.0968 235.034 18.4863 232.436C18.1183 234.686 22.1733 241.346 23.5613 243.306C34.4363 258.684 52.4895 265.226 70.4635 268.101C73.4985 268.606 76.557 268.956 79.6273 269.151C78.9423 267.919 73.394 266.214 71.8155 265.634C55.9023 259.779 40.9295 250.204 25.374 243.751ZM123.332 208.109C122.937 210.079 122.668 222.491 123.365 223.864L123.949 224.109C124.038 221.886 124.486 209.374 123.685 208.301L123.332 208.109ZM32.8488 189.141C32.6368 190.484 33.7575 192.359 33.9963 194.036C34.2443 195.776 33.7455 199.116 34.0468 200.491L34.3765 200.656L34.884 200.376C35.558 197.504 36.7978 190.316 32.8488 189.141ZM35.732 210.066C34.8843 221.056 52.757 237.696 62.3638 241.006C61.6905 239.301 43.0415 225.764 40.9425 222.024C39.0688 218.684 40.138 211.856 37.1015 210.486C36.6633 210.294 36.2038 210.151 35.732 210.066ZM35.535 129.269C35.6595 138.63 36.2565 147.341 34.261 156.519C34.0345 157.562 34.0333 161.356 34.493 162.209C35.0303 161.811 35.1068 161.101 35.2848 160.42C37.3003 152.151 39.482 143.747 38.2628 135.174C37.975 133.15 37.5995 130.152 35.535 129.269ZM5.03453 184.279C4.65503 184.964 4.74177 187.881 4.79252 188.834C5.10102 194.614 2.10153 204.629 6.27203 209.214C6.66628 209.361 6.61902 209.404 7.00402 209.389C7.43302 206.526 7.13503 203.904 7.41203 201.344C7.98228 196.074 8.10478 189.589 8.85053 184.456C7.72553 184.416 6.11053 184.404 5.03453 184.279ZM4.74378 132.073C4.38853 133.447 4.33653 163.759 4.65303 164.866C5.45303 164.641 5.71478 163.534 5.99378 162.764C8.50853 155.347 8.64553 140.133 5.41603 132.69C5.23953 132.283 5.18578 132.367 4.74378 132.073ZM123.4 237.176C122.976 239.041 122.684 243.839 122.36 245.894C121.342 252.356 118.295 271.669 119.922 277.101L120.322 277.344C124.705 269.294 124.27 254.016 124.201 245.119C124.191 243.751 124.073 237.884 123.4 237.176ZM114.675 269.834C114.01 275.531 113.948 282.409 113.581 288.276C112.939 298.891 112.045 309.489 110.898 320.061C110.698 321.979 109.543 330.016 110.165 331.154L110.421 331.109C116.657 316.444 115.283 296.194 115.263 280.494C115.26 278.471 115.384 271.139 114.675 269.834ZM162.945 173.896C152.744 181.749 141.378 184.869 129.527 189.294C127.776 189.949 120.872 192.329 119.676 193.211L119.747 193.609C122.424 194.551 126.809 190.096 129.002 192.666L128.946 193.136L128.345 193.479C126.873 193.911 125.639 194.184 124.38 195.079L124.193 195.421C126.617 195.874 133.656 193.169 135.903 191.649C134.239 191.716 131.55 192.036 130.182 191.196L130.059 190.824C130.801 189.859 138.183 189.819 139.969 189.511C149.215 187.921 156.518 183.101 162.264 175.764C162.757 175.134 163.161 174.759 162.945 173.896ZM158.054 96.8864L157.993 97.1559C157.208 100.718 157.072 107.332 157.022 111.09C156.85 124.032 156.798 136.26 153.657 148.943C149.852 164.311 135.848 166.456 122.914 170.719C119.535 171.844 116.237 173.199 113.043 174.774C111.816 175.371 109.427 176.504 108.489 177.391L108.427 177.774C109.01 177.994 108.965 177.996 109.574 177.876C113.617 177.359 117.626 176.606 121.581 175.619C127.117 174.216 148.162 167.414 150.917 162.524C160.062 146.291 160.145 117.483 158.713 98.8424C158.667 98.2447 158.402 97.2892 158.054 96.8864Z" fill="black"/>
</svg>
