<svg width="216" height="205" viewBox="0 0 216 205" fill="none" xmlns="http://www.w3.org/2000/svg">
<path d="M74.9563 96.0912C75.1635 94.4983 75.2465 92.6665 75.9761 91.2055C76.7333 89.6909 85.4852 80.8231 87.0917 79.5722C87.501 79.2526 87.9379 78.9926 88.4226 78.8033C91.3235 77.6713 94.4197 76.8525 97.3919 75.9035C99.7552 75.149 105.272 73.0258 107.513 72.9372C110.368 72.8245 113.427 73.3658 116.289 73.6209C119.663 73.9217 123.091 74.0406 126.448 74.4926C127.061 74.575 127.667 74.6343 128.191 74.976C130.164 76.2585 133.47 79.5886 135.402 81.3161C137.371 83.0737 141.644 86.3899 143.014 88.1969C143.164 88.3947 143.229 88.5773 143.306 88.8094C144.22 91.5694 146.095 102.305 145.965 105.155C145.98 105.652 145.977 106.316 146.054 106.789C146.208 108.013 146.323 108.811 146.266 110.048C146.426 110.84 146.23 111.469 146.064 112.263C145.281 115.098 144.128 118.165 143.171 120.964C142.591 122.662 141.627 124.764 141.244 126.48C141.035 126.831 140.85 127.097 140.472 127.273C137.371 128.712 133.929 129.856 130.72 131.069L123.748 133.68C122.41 134.191 118.141 135.915 116.961 135.88C112.791 135.741 108.637 135.411 104.481 135.053C101.131 134.763 97.7453 134.689 94.4088 134.277C93.4176 134.155 92.52 133.525 91.7223 132.962C91.2768 132.805 89.2726 131.513 88.8589 131.203C85.6723 128.816 81.7508 126.718 78.9222 123.961C78.1981 123.255 76.5653 119.002 76.2225 117.882C75.6609 116.794 73.4645 111.05 73.2522 109.941C72.9594 108.411 74.0849 102.91 74.3225 101.069C74.4718 99.9099 74.7434 97.1512 74.9563 96.0912Z" fill="#1B1A1B"/>
<path d="M74.9563 96.0912C75.1636 94.4983 75.2465 92.6665 75.9761 91.2055C76.7334 89.6909 85.4852 80.8231 87.0917 79.5722C87.501 79.2526 87.9379 78.9926 88.4227 78.8033C91.3236 77.6713 94.4198 76.8525 97.392 75.9035C99.7553 75.149 105.272 73.0258 107.513 72.9372C110.368 72.8245 113.427 73.3658 116.289 73.6209C119.663 73.9217 123.091 74.0406 126.448 74.4926C127.061 74.575 127.667 74.6343 128.191 74.976C130.164 76.2585 133.47 79.5886 135.402 81.3161C137.371 83.0737 141.644 86.3899 143.015 88.1969C143.164 88.3947 143.229 88.5773 143.306 88.8094C144.22 91.5694 146.095 102.305 145.965 105.155L145.841 105.129C145.426 104.679 143.101 90.6659 142.733 88.8382C140.361 86.3597 137.218 84.0198 134.721 81.6017C132.664 79.8042 130.411 77.6407 128.326 75.9282C127.183 74.9901 121.619 74.8459 119.984 74.699L112.092 73.9686C110.54 73.8258 108.849 73.5368 107.297 73.6831C105.823 73.8224 88.567 79.3172 87.643 79.9772C86.3668 80.889 76.7876 90.7029 76.3925 91.7108C75.5811 93.7774 75.2771 98.5999 74.8149 101.08C74.4508 99.546 75.4885 97.2927 74.9563 96.0912Z" fill="#CDCCCC"/>
<path d="M76.71 117.526C77.408 119.289 78.1779 122.034 79.2865 123.536C79.9837 124.481 92.2864 132.742 94.0518 133.725C95.233 133.659 98.525 133.956 99.8142 134.042L110.625 134.778C112.419 134.9 116.985 135.417 118.494 134.858C125.648 132.208 132.793 129.503 139.954 126.869C140.302 126.741 140.614 126.535 140.876 126.276L141.244 126.48C141.035 126.83 140.85 127.097 140.472 127.273C137.371 128.712 133.929 129.856 130.72 131.069L123.748 133.68C122.41 134.191 118.141 135.915 116.961 135.88C112.792 135.741 108.637 135.411 104.482 135.053C101.131 134.763 97.7455 134.689 94.4089 134.277C93.4178 134.155 92.5202 133.525 91.7224 132.962C91.277 132.805 89.2727 131.513 88.859 131.203C85.6724 128.816 81.751 126.718 78.9223 123.961C78.1982 123.255 76.5655 119.002 76.2227 117.882L76.71 117.526Z" fill="#CDCCCC"/>
<path d="M74.9563 96.0912C75.4885 97.2927 74.4508 99.546 74.8149 101.08L74.8045 101.22C74.6428 103.192 74.1556 105.709 73.851 107.729C73.3786 110.858 75.5248 114.379 76.7098 117.526L76.2225 117.882C75.6609 116.794 73.4645 111.05 73.2522 109.941C72.9594 108.411 74.0849 102.91 74.3225 101.069C74.4718 99.9099 74.7434 97.1513 74.9563 96.0912Z" fill="#CECECB"/>
<path d="M140.876 126.276C141.046 125.175 145.421 111.955 145.77 111.562L145.957 111.638L146.064 112.263C145.281 115.098 144.129 118.165 143.171 120.964C142.592 122.662 141.627 124.764 141.244 126.48L140.876 126.276Z" fill="#CDCCCC"/>
<path d="M146.266 110.048C146.09 110.284 145.925 110.523 145.769 110.773L145.649 110.666C145.602 109.68 145.424 107.557 146.054 106.789C146.208 108.013 146.323 108.811 146.266 110.048Z" fill="#1B1B1B"/>
<path d="M104.139 80.7682C111.153 80.9961 118.221 81.0044 125.237 81.2282C128.078 84.326 132 88.5141 134.607 91.8729C135.028 92.4139 135.366 95.9676 135.548 96.9384C136.269 100.759 136.596 105.743 137.429 109.47L137.466 109.633C136.265 113.419 133.86 119.002 132.355 122.864C128.877 123.973 125.385 125.028 121.893 126.115C118.828 127.069 115.422 126.667 112.248 126.96C111.582 127.021 109.664 127.155 109.124 126.945C107.319 126.244 105.465 125.098 103.76 124.152L94.2146 118.887C94.1377 113.32 93.5442 106 93.6983 100.461C93.7315 99.2659 95.9377 93.2282 96.4605 91.6573C97.0647 91.3813 97.853 91.1121 98.488 90.8856C102.635 89.4053 106.761 87.7301 110.934 86.3349L127.696 93.8777C127.742 97.3833 127.999 101.254 128.116 104.794C126.502 107.598 124.151 110.958 122.397 113.809C117.099 112.374 111.111 111.074 105.735 109.787C104.71 106.717 102.995 102.713 101.778 99.627L111.959 93.8612L119.696 99.6312C117.819 101.523 115.979 103.454 114.18 105.42C114.822 103.638 115.506 101.812 116.071 100.009C114.625 98.891 113.17 97.7856 111.707 96.6912C109.522 97.8639 107.328 99.0215 105.127 100.164C105.915 102.7 106.62 106.38 107.475 108.647C109.463 108.855 112.086 109.356 114.105 109.68L121.268 110.836C122.295 109.165 123.469 107.064 124.401 105.342C123.976 101.585 123.445 97.8104 123.1 94.0493C118.151 92.5361 112.874 90.7826 107.925 89.4081C105.325 90.3089 100.852 92.2807 98.2494 93.3751C97.4489 94.9501 95.9086 99.0325 95.361 100.774C95.1385 101.481 95.6711 105.663 95.7782 106.769L96.7404 116.845C97.3851 117.169 98.0244 117.599 98.6498 117.965C102.641 120.305 106.529 122.967 110.559 125.228C112.264 125.214 117.239 125.091 118.742 124.706C122.197 123.822 127.304 122.031 130.625 120.752C131.588 118.548 135.382 110.813 135.624 109.087C135.816 107.725 135.355 106 135.236 104.616C135.061 102.567 135.143 100.066 134.541 98.107C134.08 96.6034 125.609 85.6896 124.016 83.6134C118.209 83.4774 112.405 83.2852 106.572 83.1012C104.178 83.027 99.5184 85.5042 97.4397 86.7606C96.6976 87.2096 93.5784 90.4338 92.7596 91.2549L84.4463 99.5927C84.4292 102.875 84.3351 106.651 84.5158 109.906C84.57 110.883 85.7601 114.06 86.163 115.192C87.201 118.016 88.2029 120.855 89.1687 123.705C87.9911 122.005 81.9756 111.707 81.7241 110.505C81.2316 108.154 81.4126 102.409 81.363 99.6833C82.5614 98.1674 85.2011 95.5955 86.6323 94.0424C88.589 92.3686 91.0655 88.7517 93.1272 87.3991C96.2924 85.3216 100.821 82.4668 104.139 80.7682Z" fill="#CDCCCC"/>
<path d="M114.521 5.84079e-05C115.567 -0.0103775 122.57 1.38049 123.424 1.90022C123.537 2.31066 123.311 2.69418 123.108 3.042C122.57 3.96366 121.794 4.79689 121.129 5.62915C119.831 7.25249 118.563 8.90069 117.287 10.5413C116.569 11.4661 115.715 12.4135 115.117 13.4189C114.786 13.9753 114.554 14.6394 114.374 15.2592C113.827 17.1418 112.931 22.3161 113.379 24.1381C113.683 25.3737 114.623 26.574 115.212 27.7011C115.796 28.818 116.292 30.0846 117.058 31.0881C119.655 34.4878 125.851 38.6062 127.665 41.9358C128.558 43.5754 129.12 45.492 129.811 47.2297C130.157 48.0978 130.62 48.9513 130.878 49.85C130.965 50.147 131.042 50.5029 130.929 50.803C130.59 51.7 122.14 54.2986 120.56 55.1731L120.395 55.2654C120.564 57.863 120.752 59.9606 121.17 62.5273C122.585 64.0705 124.712 65.2746 126.304 66.6567C127.142 67.3849 130.146 69.2415 129.902 70.3767C129.158 70.9152 126.332 71.1432 125.212 71.3046C120.202 72.0738 116.101 68.9029 111.327 67.7861C110.431 67.2681 103.623 67.2526 103.827 66.1353C104.977 59.8511 109.198 54.6478 111.812 49.1548C110.989 47.3102 109.987 45.5506 108.821 43.9014C106.981 41.2992 97.6507 30.1749 97.4966 28.3617C97.4216 27.4809 98.1287 26.3551 98.5361 25.5933C99.4522 23.8798 100.429 21.9109 101.788 20.5066C103.217 19.03 105.023 17.7842 106.264 16.1472C107.632 14.3421 110.674 8.0654 111.697 5.74285C112.519 3.87674 113.187 1.54197 114.521 5.84079e-05Z" fill="#CDCCCC"/>
<path d="M114.692 0.751587L122.826 2.40418C120.202 6.20369 116.368 10.2824 113.906 14.0972C113.464 14.7826 112.517 22.5771 112.337 23.8601C113.684 26.3772 115.388 30.0053 117.118 32.269C119.284 35.1025 124.682 38.6344 126.615 41.4941C127.881 43.3679 129.55 48.2606 130.51 50.5459C127.877 51.748 122.429 53.5326 119.537 54.5613C119.972 56.8901 120.314 60.6795 120.629 63.1594C123.431 65.4501 126.505 67.7748 129.366 70.019L125.468 70.5078C124.837 70.6022 123.405 70.8366 122.822 70.7488C119.226 70.2061 115.168 67.9985 111.637 67.0979C109.832 66.6377 106.201 66.2955 104.293 66.0942C104.856 64.3483 107.103 58.8016 107.962 57.2496C109.301 54.83 111.277 51.658 112.743 49.2288C111.693 47.5196 110.436 44.922 109.232 43.3875C105.325 38.4077 101.599 33.404 97.896 28.276C99.0739 26.0736 100.636 22.6521 102.269 20.918C103.233 19.7472 106.156 17.8713 106.851 16.6428C109.6 11.7887 112.597 5.85024 114.692 0.751587Z" fill="#1B1A1B"/>
<path d="M112.275 9.44421C112.357 10.3608 107.382 24.111 106.817 26.2042L110.645 19.3967C110.578 21.7656 109.969 23.1635 109.317 25.4217C110.394 28.1614 112.437 33.7217 113.676 36.1755C116.977 37.5186 120.987 38.788 124.399 40.0729C124.99 41.9857 125.84 44.1494 126.496 46.0851L123.927 51.1927C122.7 51.1717 121.408 51.1921 120.175 51.1942C122.888 48.9108 122.771 48.5332 124.381 45.1809C122.185 41.9365 122.362 42.131 118.72 40.7022C115.259 39.3443 110.989 34.2576 108.94 31.2117C108.48 30.528 107.176 27.3103 106.781 26.3639C106.382 27.2 105.768 29.1278 105.437 30.0824C106.854 32.0295 109.352 34.9723 111.042 36.616C112.184 37.7597 113.524 39.1765 114.81 40.1196C115.918 40.9317 117.775 41.7709 118.739 42.7168C119.538 43.4999 120.637 45.0535 121.34 45.9979C120.163 48.1593 118.831 50.2322 117.353 52.2002C114.186 56.4341 113.647 56.8859 111.891 61.9688C113.335 63.2105 115.604 65.2638 116.887 66.6064C114.351 65.2874 111.509 64.0211 108.912 62.7516C112.46 57.5593 115.325 52.0074 118.375 46.5284C117.658 45.2924 115.878 42.1642 114.985 41.1334C113.042 38.8909 109.945 36.5921 107.753 34.4746C106.163 32.938 104.701 30.9773 103.339 29.2407C103.884 28.5156 105.019 27.0403 105.343 26.2462C106.461 23.5071 107.06 20.2127 107.91 17.351C108.165 16.4927 108.643 14.4315 109.061 13.7315C109.892 12.3414 111.261 10.8179 112.275 9.44421Z" fill="#CDCCCC"/>
<path d="M118.816 3.72101L119.1 3.76824C118.898 4.12526 114.483 7.34297 113.817 7.84431L113.609 7.94949C113.611 7.51667 115.852 4.86059 116.271 4.33343L118.816 3.72101Z" fill="#CDCCCC"/>
<path d="M40.4856 59.8939C39.7527 58.4056 39.4524 56.9055 39.0387 55.3256C38.5241 53.4465 38.3373 51.8144 38.4401 49.8636C38.4962 47.9605 38.8652 45.9522 38.4962 44.0635C38.2199 42.6506 37.7538 41.171 37.3193 39.7928C36.2959 36.5468 35.5225 33.242 34.4456 30.0141C34.108 29.0021 33.6318 27.536 34.6527 26.7599C35.9712 25.7674 37.4899 25.0888 38.8523 24.1604C39.6264 23.659 40.8144 22.6252 41.7579 22.9881C43.0071 24.5828 42.5633 35.4782 43.5645 37.882C44.0833 39.1273 47.5524 44.697 48.6613 45.4008C50.7997 46.7582 55.7166 48.1277 58.2853 48.6002C62.6269 49.0889 67.3054 48.3101 71.578 49.1703C73.0906 49.4748 75.3608 50.8333 76.8757 51.492C77.8601 51.92 80.6195 52.7921 80.2415 54.0831C79.306 57.2792 76.2419 60.6686 75.3813 63.7751C77.1369 65.8181 79.4493 66.956 81.1858 68.7051C83.1001 68.6527 91.8523 67.7114 92.6783 68.1766C92.8239 68.6136 92.8455 68.7941 92.5854 69.2753C92.1198 70.1364 91.1921 70.9832 90.5767 71.6853C88.3914 74.1777 88.1095 74.7086 85.1099 75.8932C82.6348 76.8797 78.6771 78.4731 76.4419 79.7781C74.5772 80.867 73.1434 82.4914 70.927 83.5817C69.8902 82.015 67.4292 75.2746 66.9397 73.2658C66.391 71.0144 66.0465 67.727 65.2052 65.4751C64.232 64.9398 62.565 64.4715 61.4568 64.1654C56.3309 62.7497 50.8674 62.2725 45.6564 61.1354C44.1242 60.801 41.9038 60.4395 40.4856 59.8939Z" fill="#CDCCCC"/>
<path d="M34.4454 27.7564C36.2902 26.6706 39.7857 24.4011 41.5403 23.5253L42.2327 32.6632C42.3 33.5353 42.541 37.5905 42.8501 38.1529C43.9467 40.1478 46.9981 44.7252 48.3991 46.4217C50.6902 47.3155 55.3451 48.9173 57.7188 49.3405C59.2546 49.6143 63.3539 49.3542 65.0847 49.4747C66.3582 49.5634 69.9032 49.3553 70.8814 49.6852C73.761 50.6561 76.935 52.4344 79.7896 53.6614C78.7383 56.0142 75.7933 61.7371 74.4924 63.9981C76.6787 65.8991 78.8774 67.7856 81.0885 69.6577C84.0688 69.4219 89.486 68.7798 92.2027 68.7875C90.9939 70.1715 89.8353 71.5696 88.6618 72.9821C87.5253 74.3497 85.7698 74.8277 84.2556 75.5728C82.6483 75.9996 78.2938 78.0329 76.7987 78.8489C75.1636 79.741 72.6081 81.765 71.0432 82.8828C70.1662 80.3397 68.6824 77.0076 67.9795 74.5163C67.1779 71.6752 66.4527 67.6956 65.8837 64.7507C63.8381 64.2362 61.3421 63.2061 59.3003 62.804C56.5195 62.2565 53.584 61.8404 50.7799 61.3699C47.3558 60.7629 43.9426 60.0956 40.542 59.3684C40.6011 57.6863 39.3279 54.4611 39.0355 52.5762C38.6545 50.1203 39.7734 47.0026 39.3849 44.7954C38.6883 40.8367 37.0744 36.5326 36.0212 32.6184C35.5813 30.9842 34.8868 29.3859 34.4454 27.7564Z" fill="#1B1A1B"/>
<path d="M39.268 29.8263C39.5986 29.9489 40.588 30.728 40.9327 30.9855C40.8815 32.243 40.5145 34.9834 40.648 36.0914C41.114 39.9564 42.8025 43.9221 44.1609 47.5253C45.1773 50.1664 46.1244 52.8336 47.0011 55.5241L54.1282 55.7596C56.3443 55.8352 58.2753 55.7162 60.3297 56.6758C63.3765 58.0989 66.5907 59.3048 69.5702 60.8613C70.7312 61.4677 72.1207 62.5256 73.2089 63.286C73.4351 66.9047 73.6386 70.3337 73.6434 73.9683C74.5789 74.159 78.3664 74.5358 78.9427 74.8688L78.6406 74.9557C75.8659 75.4263 74.6996 75.8335 71.9554 75.2562C71.5177 71.8119 71.3254 68.0341 71.0819 64.5413C70.4884 63.8935 68.2715 61.4873 67.596 61.2087C60.526 58.2928 52.5987 57.6391 45.2375 55.7475C44.7602 55.6249 42.7682 54.1135 42.2861 53.7677C42.2994 48.5587 42.5532 44.017 40.1429 39.2441C39.1282 37.2344 38.7743 32.0821 39.268 29.8263Z" fill="#CDCCCC"/>
<path d="M48.3669 50.0726C50.9107 52.6284 52.1369 52.5712 55.7133 52.7145C59.101 52.8503 63.4187 53.0395 66.4731 54.7155C67.7707 55.4276 70.3693 57.3446 71.2192 58.6412C71.4769 59.1418 71.7362 60.1402 71.8894 60.7291C69.5983 60.6001 68.7304 58.5768 66.8849 57.2331C65.7409 56.4002 65.728 56.5685 64.5996 56.0345C60.9008 54.284 57.3143 54.6654 53.3948 54.1891C52.3584 54.0631 49.8962 53.2631 48.7408 52.9157C48.6047 51.9696 48.48 51.0217 48.3669 50.0726Z" fill="#CDCCCC"/>
<path d="M128.604 137.305C129.305 137.128 130.175 136.809 130.814 137.146C131.535 138.692 130.466 151.264 129.424 153.564C129.285 153.869 129.035 154.45 128.864 154.786L128.392 156.22C130.191 156.646 132.775 159.256 134.425 160.283C138.041 162.534 141.663 164.812 145.242 167.123C146.483 167.925 149.009 169.433 150.039 170.368C150.492 171.996 149.473 177.091 148.826 178.854C147.876 181.442 145.784 184.157 145.453 187.009C145.03 190.641 144.711 194.238 144.288 197.868C144.178 198.505 144.151 202.602 143.861 202.818C143.035 203.573 135.321 204.695 134.832 204.109C134.056 203.176 138.882 190.914 138.611 189.037C138.406 186.66 137.65 183.793 137.222 181.478C136.927 179.871 131.923 175.786 130.447 174.796C128.369 173.404 124.681 172.342 122.357 171.201C121.112 170.59 119.533 170.137 118.309 169.427C116.425 168.106 111.689 163.215 110.866 161.426C110.318 160.234 118.103 155.028 119.177 153.419C118.693 152.143 116.611 147.794 115.635 146.947C113.974 145.505 106.275 144.412 105.258 142.734C105.224 141.61 106.728 141.235 107.63 140.765C108.392 140.368 110.418 139.112 111.165 138.969C115.014 138.23 119.17 138.795 123.079 138.45C124.883 138.289 126.88 137.726 128.604 137.305Z" fill="#1B1A1B"/>
<path d="M128.604 137.305L128.738 137.321C129.356 137.391 129.566 137.374 130.186 137.319C129.673 137.477 129.263 137.625 128.866 137.987C126.676 138.553 124.862 139.078 122.535 139.251C119.345 139.488 114.781 139.101 111.794 139.58C111.077 139.696 106.448 142.14 105.638 142.618C108.957 143.691 112.972 144.857 116.175 146.041C117.548 148.525 118.823 151.38 120.178 153.748C117.467 155.874 113.867 158.931 111.262 161.233C113.313 163.472 115.979 166.623 118.259 168.558C119.248 169.198 120.382 169.523 121.43 170.017C124.454 171.447 127.481 172.236 130.419 173.909C132.039 174.83 136.136 178.752 137.547 180.149C137.953 180.552 138.375 184.028 138.579 184.669C139.964 189.041 139.608 190.317 138.141 194.539C137.17 197.334 136.052 200.743 135.225 203.69C137.678 203.426 140.914 202.942 143.365 202.52C143.773 196.802 144.252 190.9 145.139 185.24C145.484 183.05 148.347 179.901 148.678 177.357C148.958 175.208 149.304 173.021 149.598 170.866C147.001 169.126 144.396 167.378 141.783 165.685C137.9 163.171 133.898 161.125 130.436 158.018C129.859 157.5 128.863 156.795 128.392 156.22C130.191 156.646 132.775 159.256 134.425 160.283C138.041 162.534 141.663 164.812 145.242 167.123C146.483 167.925 149.009 169.433 150.039 170.368C150.492 171.996 149.473 177.091 148.826 178.854C147.876 181.442 145.784 184.157 145.453 187.009C145.03 190.641 144.711 194.238 144.288 197.868C144.178 198.505 144.151 202.602 143.861 202.818C143.035 203.573 135.321 204.695 134.832 204.109C134.056 203.176 138.882 190.914 138.611 189.037C138.406 186.66 137.65 183.793 137.222 181.478C136.927 179.871 131.923 175.786 130.447 174.796C128.369 173.404 124.681 172.342 122.357 171.201C121.112 170.59 119.533 170.137 118.309 169.427C116.425 168.106 111.689 163.215 110.866 161.426C110.318 160.234 118.103 155.028 119.177 153.419C118.693 152.143 116.611 147.794 115.635 146.947C113.974 145.505 106.275 144.412 105.258 142.734C105.224 141.61 106.728 141.235 107.63 140.765C108.392 140.368 110.418 139.112 111.165 138.969C115.014 138.23 119.17 138.795 123.079 138.45C124.883 138.289 126.88 137.726 128.604 137.305Z" fill="#CDCCCC"/>
<path d="M128.604 137.305C129.305 137.128 130.175 136.809 130.814 137.146C131.535 138.692 130.466 151.264 129.424 153.564C129.285 153.869 129.035 154.45 128.865 154.786C128.62 153.119 130.123 148.388 130.206 146.35C130.325 143.458 130.418 140.551 130.487 137.652L128.866 137.987C129.263 137.625 129.674 137.477 130.186 137.319C129.566 137.374 129.356 137.391 128.738 137.321L128.604 137.305Z" fill="#CECECB"/>
<path d="M115.947 141.04C119.825 140.885 124.682 141.025 128.639 141.026C126.984 145.356 126.333 148.559 125.204 153.03C126.176 155.756 127.189 158.467 128.244 161.161C130.631 162.42 134.831 163.804 136.817 164.946C138.875 166.13 143.274 169.843 145.413 171.501C145.128 177.722 145.163 182.874 143.53 188.975C142.71 192.037 142.261 195.506 141.482 198.65C140.751 199.079 139.883 199.69 139.163 200.168L138.089 200.865C140.318 196.788 141.211 195.297 142.229 190.742C143.193 186.425 143.895 184.234 143.748 179.653C143.64 176.235 143.765 173.748 143.313 170.288C140.314 168.624 136.449 167.281 133.414 165.628C132.26 164.999 130.496 163.385 129.445 162.486L124.41 158.175C122.495 149.737 123.175 150.247 126.116 142.684C122.778 141.438 121.358 142.052 117.902 142.257C117.207 141.865 116.613 141.475 115.947 141.04Z" fill="#CDCCCC"/>
<path d="M120.078 157.033C120.763 157.699 122.086 160.548 122.673 161.648C125.726 163.154 126.77 163.859 129.266 166.207C131.184 168.011 134.556 170.149 137.016 171.127C137.493 171.316 139.191 171.463 139.805 171.528C140.283 173.128 142.307 179.377 141.712 180.58L141.556 180.216C140.611 176.484 140.21 176.146 138.128 172.798C135.944 172.416 132.635 171.96 130.587 171.415C129.127 169.923 127.855 168.164 126.373 166.719C125.159 165.534 123.377 164.705 122.02 163.7C120.741 162.752 119.73 161.169 118.799 159.864C119.217 158.917 119.644 157.974 120.078 157.033Z" fill="#CDCCCC"/>
<path d="M153.602 107.91L153.806 107.575C154.804 107.402 161.403 112.386 162.421 113.312C164.454 115.161 166.54 117.332 168.621 119.183C170.985 118.519 173.166 117.875 175.433 116.922C177.571 116.022 179.677 114.842 181.804 113.979C184.167 113.032 189.54 110.062 191.816 109.552C193.278 109.144 198.498 114.388 199.04 115.589C201.609 121.282 205.518 123.692 210.261 127.444C211.82 128.679 214.749 130.527 215.928 132.068C216.319 132.767 215.004 135.042 214.582 135.845C214.471 136.675 213.104 139.054 212.842 140.011C212.794 140.193 212.474 140.445 212.313 140.557C211.831 140.574 211.742 140.477 211.327 140.113C210.495 139.384 209.837 138.332 209.143 137.521C207.104 135.139 203.806 130.114 201.116 128.756C199.739 128.061 195.132 126.167 193.533 125.953C192.879 125.867 190.837 126.495 190.11 126.74C188.434 127.302 186.159 127.818 184.611 128.585C182.351 129.706 180.004 131.661 177.864 133.059C176.57 133.905 174.14 135.852 172.695 136.156C169.982 136.728 166.896 137.195 164.131 137.641C163.792 137.696 163.487 137.63 163.196 137.466C162.435 136.065 161.682 128.194 161.429 126.099C159 125.959 155.909 125.61 153.558 125.619C152.191 126.493 150.768 127.693 149.37 128.654L149.246 128.749C148.245 129.53 145.435 132.771 144.299 132.239L144.127 132.083C143.855 131.317 144.313 129.207 144.465 128.307C144.784 125.665 144.528 124.614 146.157 122.226C147.704 119.961 149.025 117.339 150.588 115.078C151.697 113.271 152.518 109.582 153.602 107.91Z" fill="#1B1A1B"/>
<path d="M153.261 124.769C156.082 124.925 159.084 125.26 161.91 125.527C162.348 128.83 162.847 133.876 163.458 136.964C165.983 136.758 170.142 135.913 172.572 135.432C173.861 135.178 178.617 131.81 179.827 130.847C184.381 127.222 187.829 126.589 193.429 125.04C195.699 125.871 200.52 127.337 202.346 128.485C203.958 129.499 210.327 137.807 212.142 139.885C213.047 137.987 213.848 136.028 214.738 134.162L214.997 134.258C214.839 134.927 214.507 135.137 214.583 135.845C214.471 136.675 213.105 139.054 212.842 140.011C212.794 140.193 212.474 140.445 212.313 140.557C211.831 140.574 211.742 140.477 211.327 140.113C210.495 139.384 209.837 138.332 209.143 137.52C207.104 135.139 203.806 130.114 201.116 128.756C199.739 128.061 195.132 126.167 193.533 125.953C192.879 125.867 190.837 126.495 190.11 126.74C188.435 127.301 186.159 127.818 184.611 128.585C182.351 129.706 180.004 131.661 177.864 133.059C176.57 133.905 174.14 135.852 172.695 136.156C169.983 136.728 166.896 137.195 164.131 137.641C163.792 137.696 163.487 137.63 163.196 137.466C162.435 136.065 161.682 128.194 161.43 126.099C159 125.959 155.909 125.61 153.558 125.619C152.191 126.493 150.768 127.693 149.37 128.654L148.885 128.366C150.352 127.177 151.809 125.978 153.261 124.769Z" fill="#CDCCCC"/>
<path d="M191.816 109.552C193.278 109.144 198.498 114.388 199.04 115.589C201.609 121.282 205.519 123.691 210.261 127.444C211.82 128.679 214.749 130.527 215.929 132.068C216.319 132.767 215.004 135.042 214.582 135.845C214.507 135.137 214.839 134.927 214.997 134.258L214.738 134.162L215.521 132.297C210.899 128.963 206.183 125.239 201.923 121.46C199.936 119.7 198.985 115.177 196.258 113.441C195.038 112.665 193.548 110.939 192.173 110.015L191.954 109.939L191.816 109.552Z" fill="#CDCCCC"/>
<path d="M153.602 107.91L153.806 107.575C154.804 107.402 161.403 112.386 162.421 113.312C164.454 115.161 166.54 117.332 168.621 119.183C170.985 118.519 173.166 117.875 175.433 116.922C177.571 116.022 179.677 114.842 181.805 113.979L182.945 114.088C181.754 114.726 180.441 115.252 179.273 115.889C175.772 117.801 172.346 118.795 168.583 120.038C164.991 116.554 161.519 113.083 157.284 110.415C156.231 109.751 155.232 108.808 154.11 108.261C153.778 108.411 153.768 108.677 153.567 109.121C153.394 108.71 153.526 108.411 153.602 107.91Z" fill="#CDCCCC"/>
<path d="M150.588 115.078L150.746 115.093C151.219 114.818 151.022 114.498 151.47 114.121L151.683 114.36C151.029 116.257 147.97 120.369 146.851 122.393C146.388 123.229 145.8 123.935 145.437 124.919C145.148 125.707 145.244 127.322 145.065 127.943L144.863 127.656C144.731 127.889 144.611 128.081 144.465 128.307C144.784 125.665 144.528 124.614 146.157 122.226C147.704 119.961 149.025 117.339 150.588 115.078Z" fill="#CECCCD"/>
<path d="M181.804 113.979C184.167 113.032 189.54 110.062 191.816 109.552L191.953 109.939L192.173 110.015L185.895 112.808C185.293 113.074 183.513 113.908 182.944 114.088L181.804 113.979Z" fill="#CECECB"/>
<path d="M153.602 107.91C153.526 108.411 153.394 108.71 153.567 109.121C153.342 109.862 152.008 113.926 151.683 114.36L151.47 114.121C151.022 114.498 151.219 114.818 150.746 115.093L150.588 115.078C151.697 113.271 152.518 109.582 153.602 107.91Z" fill="#CECECB"/>
<path d="M144.775 131.786C145.984 130.694 147.608 129.426 148.885 128.366L149.37 128.654L149.246 128.749C148.245 129.53 145.435 132.771 144.299 132.239C144.477 132.138 144.657 132.037 144.837 131.939L144.688 131.901L144.775 131.786Z" fill="#CECECB"/>
<path d="M144.465 128.307C144.611 128.081 144.731 127.889 144.863 127.656L145.065 127.943C144.979 128.89 144.756 130.928 144.775 131.786L144.687 131.902L144.837 131.939C144.657 132.037 144.477 132.138 144.299 132.239L144.127 132.083C143.855 131.317 144.313 129.207 144.465 128.307Z" fill="#CDCCCC"/>
<path d="M156.195 113.089C156.931 113.353 158.443 113.863 159.053 114.246C161.475 115.768 162.832 119.746 165.204 121.365C165.918 121.853 168.946 123.019 169.912 123.41C171.478 122.207 172.443 121.249 174.335 120.37C178.519 118.428 182.616 116.149 186.893 114.423C187.845 114.04 189.466 113.738 190.495 113.5L190.998 115.226C193.375 117.364 196.312 119.7 198.829 121.707C199.924 122.583 202.108 123.678 203.363 124.569C205.238 125.901 207.09 127.528 208.705 129.161C206.652 128.099 205.567 127.3 203.723 125.949C198.595 122.265 194.831 118.891 189.264 115.657C186.481 115.885 184.883 116.08 182.451 117.606C181.311 118.321 179.743 118.94 178.666 119.738C175.357 122.193 172.807 123.991 168.94 125.527C167.871 125.338 166.69 125.212 165.606 125.074C165.047 123.855 163.428 120.867 162.604 119.99C160.583 117.839 159.21 117.64 157.917 114.773C156.11 115.946 153.794 117.526 151.945 118.511C153.346 116.886 154.868 114.81 156.195 113.089Z" fill="#CDCCCC"/>
<path d="M188.454 119.236L189.741 119.149C192.82 120.768 194.181 121.36 196.771 123.669C193.866 122.708 188.459 119.756 185.53 121.286C183.391 122.401 181.114 124.882 178.817 126.21C174.36 128.789 172.334 129.471 167.354 130.23C166.22 129.721 165.039 129.085 163.929 128.511C163.149 126.813 162.879 125.205 161.728 123.664C160.89 122.671 160.137 121.751 159.206 120.839C157.622 120.677 154.993 120.794 153.312 120.83C154.375 120.375 155.504 119.947 156.582 119.518C159.628 120.529 160.833 120.633 162.364 123.675C163.645 126.225 165.825 127.214 168.24 128.55C169.385 128.271 174.183 127.215 174.997 126.773C178.457 124.89 182.199 121.305 185.766 119.532C185.961 119.436 188.09 119.266 188.454 119.236Z" fill="#CDCCCC"/>
<path d="M73.541 135.432C72.7087 133.882 68.118 126.781 68.4626 125.573C68.4984 125.446 68.523 125.434 68.6501 125.383C69.6011 124.999 74.5506 126.49 75.5965 127.023C77.8015 128.146 79.6102 130.287 81.4347 131.921C83.4079 133.687 85.3197 135.017 87.6469 136.279C88.5445 136.767 90.8745 137.726 91.1294 138.706C91.2084 139.009 90.9321 139.454 90.7563 139.689C89.4962 141.375 85.5719 144.967 83.8541 146.394C82.5357 147.49 78.3446 150.38 77.6297 151.569C77.3936 151.962 77.5015 152.786 77.558 153.242C77.9776 156.631 78.9116 159.897 79.7666 163.193C80.1244 164.572 80.3857 165.976 80.7858 167.343C81.5212 169.855 82.4132 172.418 82.9388 174.983C83.0801 175.481 83.2499 176.165 82.9675 176.64C82.5006 177.427 81.5563 178.082 80.8314 178.66C79.5333 179.695 78.1492 180.951 76.6685 181.708C74.4847 182.826 71.9896 183.344 69.8949 184.629C66.8844 186.792 63.9201 189.895 61.1573 192.378C60.0049 193.413 58.2022 195.646 56.8924 196.16C55.9058 195.992 50.0913 192.221 49.3874 191.491L49.2496 191.138C49.4726 190.111 51.423 189.343 52.3144 188.786C55.344 186.892 59.0469 185.286 61.825 183.049C63.1192 182.006 64.8542 178.273 65.9 176.751C67.1441 174.811 66.5675 173.067 66.4671 171.093C66.2231 166.3 64.5876 162.718 62.3759 158.563C61.7466 157.38 60.7432 155.257 60.3394 153.923L60.289 153.751C60.0578 151.804 59.7284 144.775 60.2588 143.222C60.6682 142.023 69.9255 143.516 71.9534 142.835C72.058 140.967 73.1116 137.439 73.541 135.432Z" fill="#1B1A1B"/>
<path d="M73.5409 135.432C72.7087 133.882 68.1179 126.781 68.4625 125.573C68.4984 125.446 68.523 125.434 68.65 125.383C69.6011 124.999 74.5506 126.49 75.5964 127.023C77.8015 128.146 79.6101 130.287 81.4346 131.921C83.4078 133.687 85.3196 135.017 87.6468 136.279C88.5444 136.767 90.8744 137.726 91.1294 138.706C91.2084 139.009 90.932 139.454 90.7562 139.689C89.4961 141.375 85.5718 144.967 83.8541 146.394C82.5356 147.49 78.3445 150.38 77.6296 151.569C77.3935 151.962 77.5015 152.786 77.5579 153.242C77.9775 156.631 78.9115 159.897 79.7666 163.193C80.1244 164.572 80.3856 165.976 80.7857 167.343C81.5211 169.855 82.4131 172.418 82.9387 174.983C82.4169 174.501 82.447 174.052 82.1908 173.325L82.099 174.142C80.6701 168.679 79.1527 163.259 77.6245 157.823C77.1178 156.021 76.8521 153.202 76.5436 151.271C78.5546 149.81 80.5469 148.285 82.5127 146.762C85.4901 144.455 88.0965 141.481 90.7067 138.749C88.6493 137.676 85.5239 136.157 83.7245 134.759C81.2372 132.828 78.056 129.337 75.4417 127.734C74.6801 127.267 69.8844 126.099 68.8361 125.82C70.1501 128.552 72.7801 132.636 74.3855 135.437C73.8149 137.909 73.0327 140.375 72.4601 142.895L71.9534 142.835C72.0579 140.967 73.1115 137.439 73.5409 135.432Z" fill="#CDCCCC"/>
<path d="M60.6653 152.977C61.0818 155.362 65.2278 162.464 66.1058 165.055C66.748 166.95 67.4235 172.861 67.5721 174.986C66.1362 177.585 64.5777 180.495 62.9734 183.017C61.9229 184.668 50.2834 190.336 49.9904 191.178L49.3874 191.491L49.2496 191.138C49.4726 190.111 51.423 189.343 52.3144 188.786C55.344 186.892 59.0469 185.286 61.825 183.049C63.1192 182.006 64.8542 178.273 65.9 176.751C67.1441 174.811 66.5675 173.067 66.4671 171.093C66.2231 166.3 64.5876 162.718 62.3759 158.563C61.7466 157.38 60.7432 155.257 60.3394 153.923L60.289 153.751C60.4009 153.442 60.5114 153.264 60.6653 152.977Z" fill="#CDCCCC"/>
<path d="M82.0988 174.142L82.1907 173.325C82.4469 174.052 82.4168 174.501 82.9386 174.983C83.0799 175.481 83.2497 176.165 82.9673 176.64C82.5005 177.427 81.5562 178.082 80.8312 178.66C79.5331 179.695 78.149 180.951 76.6683 181.709C74.4845 182.826 71.9894 183.344 69.8947 184.629C66.8842 186.792 63.9199 189.895 61.1571 192.378C60.0047 193.413 58.202 195.646 56.8922 196.16C55.9056 195.992 50.0911 192.221 49.3872 191.491L49.9902 191.178L56.8599 195.635C59.7825 192.762 62.676 190.045 65.7747 187.36C66.9676 186.326 68.658 184.677 69.9133 183.848C71.3613 182.891 74.2553 182.237 75.8708 181.457C78.1083 180.377 80.7102 177.895 82.6518 176.246L82.0988 174.142Z" fill="#CECECB"/>
<path d="M60.2888 153.751C60.0576 151.804 59.7283 144.775 60.2586 143.222C60.668 142.023 69.9254 143.516 71.9532 142.835L72.4599 142.895C72.2712 143.444 72.3528 143.522 71.9751 143.788C69.005 143.918 63.7244 143.593 60.6101 143.473C60.5623 146.045 60.6587 148.603 60.6996 151.175C60.7085 151.731 60.7308 152.431 60.6651 152.977C60.5112 153.264 60.4007 153.442 60.2888 153.751Z" fill="#C3C1C4"/>
<path d="M76.0963 131.087C78.1054 132.143 82.2184 136.743 83.8355 138.564C84.1717 138.942 84.6632 141.586 84.8011 142.258C83.3957 143.797 80.5404 146.67 78.9615 147.91C78.1228 148.569 74.7593 150.261 73.6296 150.85C74.0618 154.204 74.0984 158.347 74.4907 161.757C74.6192 162.873 74.692 166.008 75.07 166.85C76.2907 169.567 78.1918 172.74 79.6689 175.377L77.4951 178.8C75.2201 179.201 72.9513 179.636 70.6893 180.105C69.587 181.073 68.579 182.688 67.4482 183.595C66.4795 184.374 65.1998 185.217 64.1653 185.947C61.9057 187.518 59.672 189.125 57.4652 190.769L55.8593 191.919C56.6161 190.983 57.9138 189.345 58.8678 188.669C61.9711 186.475 65.851 184.41 67.9208 181.069C68.151 180.697 68.7284 178.955 68.9022 178.44C73.6661 177.155 73.452 178.022 77.5655 174.931C76.0473 174.077 74.6536 171.812 74.186 170.149C73.6418 168.215 73.5497 165.872 73.1383 163.848C72.4863 160.638 71.673 157.437 71.1539 154.208C71.0588 153.56 71.4484 149.192 71.5188 148.297C76.6121 146.314 81.7704 145.308 82.7156 139.3C78.205 135.383 78.7334 137.04 76.0963 131.087Z" fill="#CDCCCC"/>
<path d="M70.3225 146.726L72.4344 146.581C71.0038 147.444 69.4827 148.298 68.0326 149.14C68.3323 151.999 68.5169 155.657 69.02 158.392C69.4303 160.622 70.9394 163.963 71.4033 166.234C71.6955 167.664 71.8018 170.399 71.9093 171.936C71.4086 172.751 69.7077 175.715 68.9123 175.829L68.8913 175.632L69.0223 175.661L68.9613 175.706C68.9138 175.392 68.901 175.554 69.1154 175.225L70.6364 172.86C69.9217 168.765 68.9274 164.654 67.3029 160.841C67.0867 160.333 66.8935 159.782 66.6949 159.264C65.6846 156.616 64.7067 153.954 63.7609 151.282C64.0795 149.98 64.363 148.404 64.6354 147.071C66.4057 146.872 68.5184 146.814 70.3225 146.726Z" fill="#CDCCCC"/>
<path d="M75.8761 136.437C76.8113 136.71 79.1382 137.964 80.0797 138.447C77.7574 142.921 78.6916 142.928 74.3143 145.479C73.6899 145.886 72.9284 146.3 72.2743 146.677C74.7705 143.994 75.9059 143.089 77.5363 139.759C77.0961 138.733 76.3952 137.452 75.8761 136.437Z" fill="#CDCCCC"/>
<path d="M60.7829 101.955L60.8973 101.805C62.215 100.066 65.7249 93.0373 66.8122 92.3356C67.7015 92.7338 68.7679 97.9792 68.6623 98.9748C69.0009 100.156 68.252 102.614 68.1077 103.998C68.0273 104.837 67.7979 107.593 67.5911 108.222C66.4288 111.755 67.5419 115.252 67.0025 118.656C66.4147 119.063 65.7724 118.822 65.0933 118.728C59.8282 117.99 53.8444 115.149 49.3119 113.661C47.2561 112.985 36.5916 125.03 34.8035 126.7C33.5478 127.873 31.2902 130.998 29.4414 130.803C27.2564 130.178 24.908 129.258 22.8721 128.323C20.9346 127.433 18.8925 124.819 17.0711 123.919C14.5288 122.666 11.3489 121.819 8.63306 120.892C7.17808 120.484 1.00227 118.803 0.192843 118.078C-0.285008 116.864 0.203144 110.169 0.808185 108.735C3.61225 109.692 7.59577 112.613 10.3684 113.986C13.0465 115.311 13.0859 115.95 16.302 116.084C18.3575 116.2 20.9968 116.127 23.0546 115.904C24.242 115.773 25.3433 114.555 26.2671 113.998C32.231 110.409 34.4475 103.944 38.9356 99.0983C39.4845 98.5051 46.6505 94.3033 47.3359 94.1976C47.8436 94.3733 47.6783 94.3061 48.0707 94.7633C48.7777 95.6311 49.8114 97.8474 50.3492 98.95C51.9131 101.555 52.6704 104.807 55.7602 103.487C57.1501 102.894 59.2532 102.48 60.7829 101.955Z" fill="#1B1A1B"/>
<path d="M48.8079 112.511C52.6665 114.11 56.5704 115.966 60.6339 116.926C62.5952 117.389 64.8034 117.821 66.6945 118.454L67.0026 118.656C66.4147 119.063 65.7724 118.822 65.0933 118.728C59.8282 117.99 53.8444 115.149 49.3119 113.661C47.2561 112.985 36.5916 125.03 34.8035 126.7C33.5479 127.873 31.2902 130.998 29.4414 130.803C27.2564 130.178 24.9081 129.258 22.8721 128.323C20.9346 127.433 18.8925 124.819 17.0711 123.919C14.5288 122.666 11.349 121.818 8.63308 120.892C8.96026 120.714 9.08058 120.746 9.4388 120.76C9.36751 120.682 8.58858 120.467 8.21594 120.263L8.23819 120.092C9.84701 120.47 17.1929 122.814 18.0213 123.583C22.547 127.782 24.4976 128.253 30.2271 130.295C34.7137 126.479 39.2175 121.069 43.4712 116.916C44.8545 115.567 47.2411 113.765 48.8079 112.511Z" fill="#CECECB"/>
<path d="M16.302 116.084C18.3575 116.2 20.9967 116.127 23.0546 115.904C24.242 115.773 25.3433 114.555 26.2671 113.998C32.231 110.409 34.4475 103.944 38.9356 99.0983C39.4845 98.5051 46.6505 94.3033 47.3359 94.1976C47.8435 94.3733 47.6783 94.306 48.0707 94.7633L47.7007 94.994C47.3826 94.8773 47.4044 94.8333 47.0524 95.0283C44.9727 96.1818 42.9156 97.5439 40.838 98.685C38.8422 99.6792 37.9504 101.214 36.7278 102.982C34.9719 105.468 33.3537 108.158 31.4856 110.557C30.6197 111.668 28.7928 112.856 27.6592 113.757C26.4207 114.74 25.0463 115.756 23.7703 116.693C22.1476 116.709 14.5394 116.883 13.5504 116.587C14.3085 116.52 15.8732 116.54 16.302 116.084Z" fill="#CDCCCC"/>
<path d="M8.63306 120.892C7.17808 120.484 1.00227 118.803 0.192843 118.078C-0.285008 116.864 0.203144 110.169 0.808185 108.735C3.61225 109.692 7.59577 112.613 10.3684 113.986C13.0465 115.311 13.0859 115.95 16.302 116.084C15.8732 116.54 14.3085 116.519 13.5504 116.587L5.61349 112.108C4.29284 111.367 2.26468 110.292 1.02452 109.457C0.836619 112.061 0.636907 115.22 0.614519 117.809C2.07458 118.199 7.16297 119.509 8.23817 120.092L8.21592 120.263C8.58856 120.467 9.36749 120.682 9.43877 120.76C9.08056 120.746 8.96023 120.714 8.63306 120.892Z" fill="#CDCCCC"/>
<path d="M60.7829 101.955L60.8973 101.805C62.2149 100.066 65.7249 93.0373 66.8121 92.3356C67.7015 92.7338 68.7679 97.9792 68.6623 98.9748C68.0049 96.9947 67.4348 94.9308 66.8547 92.9219C65.0278 96.1337 63.2232 99.3592 61.4408 102.596C58.6807 103.425 55.7303 104.132 53.0314 104.988C52.0843 103.155 51.1112 101.335 50.1122 99.5309L50.3491 98.95C51.913 101.555 52.6704 104.807 55.7602 103.487C57.15 102.894 59.2532 102.48 60.7829 101.955Z" fill="#CDCCCC"/>
<path d="M66.6946 118.454C66.7159 117.883 66.6737 117.21 66.652 116.64C66.5296 113.424 66.4484 110.34 67.2748 107.2C67.5459 106.17 67.6859 105 68.1078 103.998C68.0275 104.837 67.7981 107.593 67.5912 108.222C66.4289 111.755 67.5421 115.252 67.0027 118.656L66.6946 118.454Z" fill="#CECECB"/>
<path d="M47.7007 94.9939L48.0707 94.7632C48.7777 95.6311 49.8114 97.8473 50.3491 98.95L50.1122 99.5308C49.2982 98.0355 48.4491 96.5181 47.7007 94.9939Z" fill="#CECECB"/>
<path d="M62.0674 110.508C63.3595 106.506 64.3966 104.22 66.4439 100.543C66.2127 103.582 65.6813 106.637 65.1641 109.634C64.83 111.571 64.7988 112.839 64.2082 114.803C61.6947 113.128 58.1865 110.693 55.6438 109.232C54.2207 109.4 48.4627 110.073 47.4623 110.57C44.983 111.8 39.9909 115.439 38.4496 117.768C35.8494 121.699 33.6189 123.09 29.7998 125.509C27.5478 124.285 24.9419 122.708 22.5375 121.941C20.3207 121.233 17.8822 120.259 15.6472 119.683L15.6714 119.634C16.0249 119.393 16.4402 119.466 16.9341 119.448C19.668 119.606 24.8657 121.618 27.6563 122.556C29.2477 121.824 32.875 120.382 34.0583 119.396C36.4705 117.386 38.8826 112.947 41.2433 110.841C43.069 109.216 47.6221 107.245 49.9556 106.306C50.6265 106.118 55.1501 106.221 56.0112 106.247C57.9583 107.582 60.1466 109.265 62.0674 110.508Z" fill="#CDCCCC"/>
<path d="M47.6465 100.687L47.7872 100.749C48.0447 101.278 48.1527 102.151 48.2619 102.756C46.2164 103.66 42.0071 105.264 40.3399 106.485C37.082 108.871 34.3505 114.169 31.9549 117.242L31.8359 117.393L28.4032 117.987C28.3417 117.998 28.0587 117.992 27.9852 117.992C28.2077 117.677 30.4167 116.782 31.286 115.722C35.281 110.848 39.363 105.495 44.2748 101.53C44.6353 101.239 47.0645 100.804 47.6465 100.687Z" fill="#CDCCCC"/>
<path d="M15.6471 119.683C14.7519 119.621 13.3706 119.538 12.5316 119.296C13.5935 119.271 15.9623 119.199 16.9339 119.448C16.44 119.466 16.0248 119.394 15.6712 119.634L15.6471 119.683Z" fill="#1B1B1B"/>
<path d="M157.919 70.0988C161.862 63.1283 161.964 53.3214 165.152 46.0152C165.506 45.2033 172.436 44.1167 173.581 44.2329C175.606 44.4383 177.941 44.9694 180.004 45.1129C183.982 44.7596 188.786 43.3679 192.768 42.5443C194.305 42.2264 195.924 41.5256 197.485 41.4822C198.552 41.9195 201.806 48.5757 201.686 49.7469C200.781 50.3766 194.069 50.1223 192.584 50.1133C191.962 50.162 190.569 50.3099 189.985 50.2544C186.192 49.8941 183.532 52.3238 180.383 54.0004C178.85 54.8162 178.067 55.892 177.32 57.4013C176.437 59.315 175.508 62.4595 175.018 64.5462C174.327 67.4813 174.713 75.6775 173.418 77.8857C172.098 80.4894 170.364 83.5323 168.892 86.0699C168.772 86.1001 168.396 86.1605 168.305 86.118C165.905 84.992 160.833 82.2649 159.345 80.1956C158.715 79.8276 158.809 79.9003 158.172 79.9896C158.134 80.2395 158.044 80.819 157.902 81.0071C156.662 82.6672 154.343 84.4098 153.116 85.9738C153.036 88.1255 153.484 96.3287 152.951 97.5357C151.628 97.4272 147.756 93.2872 147.051 92.0486C146.321 90.7634 145.782 87.9923 145.267 86.4736C143.947 82.5821 142.195 79.5145 140.122 76.004C139.783 75.339 139.489 75.0388 139.847 74.3396C140.671 73.7272 142.234 73.357 143.267 73.0616C145.451 72.4377 147.593 71.7467 149.83 71.3548C152.367 70.9105 155.485 70.7745 157.919 70.0988Z" fill="#1B1A1B"/>
<path d="M157.919 70.0988C161.862 63.1283 161.964 53.3214 165.152 46.0152C165.506 45.2033 172.436 44.1167 173.581 44.2329C175.606 44.4383 177.941 44.9694 180.004 45.1129C183.982 44.7596 188.786 43.3679 192.768 42.5443C194.305 42.2264 195.924 41.5256 197.485 41.4822C198.552 41.9195 201.806 48.5757 201.686 49.7469C200.781 50.3766 194.069 50.1223 192.584 50.1133C192.885 50.0482 193.098 50.0369 193.327 49.8367C192.367 49.6166 190.357 49.8587 189.025 49.6804C192.798 49.4 197.287 49.6339 201.226 49.4422C200.502 47.8046 198.367 43.473 197.438 42.0537C192.375 43.6942 185.608 44.9256 180.298 45.8911C178.927 46.1405 175.353 45.0255 173.797 45.0175C171.666 44.8765 167.785 45.7475 165.563 46.2044C163.692 52.0674 162.491 58.1469 160.969 64.0966C160.445 66.1489 159.209 68.9319 158.417 70.968C153.393 71.3035 148.141 72.285 143.384 73.797C142.425 74.1015 141.108 74.3671 140.239 74.808C140.16 75.1747 140.277 75.2143 140.482 75.6428L140.122 76.004C139.783 75.339 139.489 75.0388 139.847 74.3396C140.671 73.7272 142.234 73.357 143.267 73.0616C145.451 72.4377 147.593 71.7467 149.83 71.3548C152.367 70.9105 155.485 70.7745 157.919 70.0988Z" fill="#CDCCCC"/>
<path d="M140.482 75.6427C141.559 77.3403 143.399 80.0307 144.111 81.8268C145.304 84.8395 146.339 89.0716 147.753 91.9154C148.123 92.6569 151.686 95.9401 152.525 96.7777C152.664 97.0111 152.848 97.2913 152.951 97.5357C151.628 97.4272 147.756 93.2872 147.051 92.0486C146.321 90.7633 145.782 87.9923 145.267 86.4736C143.947 82.5821 142.195 79.5144 140.122 76.004L140.482 75.6427Z" fill="#CECECB"/>
<path d="M173.099 77.3222C173.514 76.0219 173.503 74.6647 173.624 73.3275C173.897 70.2979 173.993 66.6187 174.425 63.6696C174.593 62.5064 176.409 58.449 176.963 57.1397L177.32 57.4012C176.437 59.3149 175.508 62.4594 175.018 64.5461C174.327 67.4812 174.713 75.6774 173.418 77.8856L173.099 77.3222Z" fill="#CDCCCC"/>
<path d="M177.972 54.7257C180.104 53.3141 184.494 50.7271 186.894 49.7552C187.273 49.6014 188.525 49.6614 189.025 49.6804C190.358 49.8586 192.367 49.6165 193.327 49.8366C193.098 50.0368 192.885 50.0481 192.584 50.1132C191.962 50.1619 190.569 50.3098 189.985 50.2544C186.192 49.894 183.532 52.3237 180.383 54.0003C178.85 54.8161 178.067 55.892 177.32 57.4012L176.963 57.1397L177.972 54.7257Z" fill="#CECECB"/>
<path d="M152.499 85.7554C154.407 83.8866 156.265 81.8886 158.172 79.9896C158.134 80.2395 158.044 80.8189 157.902 81.0071C156.662 82.6672 154.344 84.4097 153.116 85.9738C153.036 88.1255 153.484 96.3287 152.951 97.5357C152.848 97.2913 152.664 97.0111 152.525 96.7777C152.757 96.1433 152.511 87.281 152.499 85.7554Z" fill="#CECECB"/>
<path d="M159.344 80.1956C160.684 80.4743 166.69 84.7956 168.639 85.5632L168.892 86.0699C168.772 86.1001 168.396 86.1605 168.305 86.118C165.904 84.992 160.833 82.2649 159.344 80.1956Z" fill="#CDCCCC"/>
<path d="M173.099 77.3222L173.418 77.8856C172.098 80.4894 170.364 83.5323 168.892 86.0699L168.639 85.5632C168.789 84.7915 172.496 78.4185 173.099 77.3222Z" fill="#CECECB"/>
<path d="M171.199 46.9465C174.008 47.0277 177.221 47.6661 180.037 47.6742C181.225 47.6776 183.609 47.2017 184.866 46.9728C183.608 47.9669 182.332 48.9399 181.041 49.8911C178.277 49.6806 175.326 49.5268 172.618 49.0083C171.362 49.4858 169.902 50.1574 168.701 50.7434C168.182 51.6764 166.352 55.7807 166.2 56.7236C165.436 61.4356 165.595 67.0769 165.609 71.8434C164.645 72.8215 163.144 74.4711 161.986 75.0963C161.596 75.269 160.079 75.9552 159.772 75.9706C157.831 76.0672 155.386 75.7927 153.41 75.652C151.37 75.5068 149.113 75.4574 147.153 75.2415C149.97 74.9189 155.062 74.5142 157.65 73.6941C158.36 73.4694 161.851 70.707 162.67 70.0457C162.905 67.1527 163.114 63.9547 163.506 61.0931C163.656 60.0092 164.598 57.4705 164.982 56.3661L167.367 49.5414C168.509 48.6573 169.97 47.7507 171.199 46.9465Z" fill="#CDCCCC"/>
<path d="M177.063 51.5044L177.188 51.5302C177.106 51.933 172.684 56.9029 172.059 57.686C171.473 61.4621 171.395 65.6878 170.742 69.4777C170.502 70.8676 169.864 72.7227 169.467 74.1137C168.594 77.1737 168.488 77.9557 166.498 80.3809C158.177 77.6863 157.901 76.2852 149.676 81.2749C150.002 83.623 150.341 86.5876 149.676 88.8341C148.855 87.2577 147.922 85.0648 147.159 83.4087L148.021 80.8684C147.799 80.0802 147.446 79.1264 147.178 78.3363C149.639 78.5803 150.989 78.7674 153.43 78.2327C157.847 77.2653 162.428 76.7269 166.915 76.1593C167.682 72.3171 168.014 67.5563 168.738 63.6304C168.907 62.707 169.231 59.7211 169.532 58.9807C170.245 57.2267 173.184 53.999 174.709 52.7696C175.085 52.4666 176.6 51.7304 177.063 51.5044Z" fill="#CDCCCC"/>
</svg>
